<?xml version="1.0" encoding="utf-8"?>
<!-- Generator: Adobe Illustrator 28.2.0, SVG Export Plug-In . SVG Version: 6.00 Build 0)  -->
<svg version="1.1" id="Vrstva_1" xmlns="http://www.w3.org/2000/svg" xmlns:xlink="http://www.w3.org/1999/xlink" x="0px" y="0px"
	 viewBox="0 0 500 500" style="enable-background:new 0 0 500 500;" xml:space="preserve">
<style type="text/css">
	.st0{fill:#FFFFFF;}
	.st1{fill:#141414}
</style>
<g>
	<g>
		<path class="st1" d="M0,270.1C0,182.8,0,95.4,0,8c164.8,0,329.7,0,494.5,0c0,4.6,0,9.2,0,13.8c-5.3,0.5-10.6,0.9-15.9,1.4
			c0.8-1.3,1.8-2.8,3.1-4.9c-2.1,0.6-3.4,0.9-4.8,1.3c0-0.3-0.1-0.6-0.1-0.9c2.2-0.2,4.4-0.3,6.4-0.5c-2.2-3.6-5.7-4.2-9.7-1.6
			c-4.9,3.2-10.1,13.6-9.9,19.9c2.9-2,5.9-3.6,8.3-5.8c4.3-4.2,9.5-3.5,15.1-4c-1.2,2.6-2.2,4.5-3.1,6.5c-0.7,1.5-1.7,1.9-3.4,2
			c-3.5,0.2-7,0.6-10.3,1.5c-5,1.4-8.9,4.7-11.4,9.4c0.5-0.1,0.9-0.4,1.3-0.7c5.7-4.7,12.3-6.7,19.5-5.7c4.3,0.6,7.1-0.9,8.8-4.7
			c0.7-1.5,1.4-2.9,2.1-4.4c1.3-2.7,2.7-5.5,4-8.2c0,159.6,0,319.1,0,478.7c-1.1,0-2.2-0.1-3.3-0.1c-38.7,0-77.4-0.2-116,0.2
			c-6.2,0.1-9.5-1.4-11.4-7.4c-2.8-8.9-9.4-13.6-18.7-14.7c-2.8-0.3-5.5-1.1-7.3-3.7c-0.1-0.1-0.3,0-0.4-0.1c0,0.3,0,0.6,0.1,1.2
			c-3.6-3-6.4-6.8-11.1-7.7c2.3,2.5,4.7,4.9,6.7,7.6c3.2,4.4,7.2,7.8,12,10.5c6.7,3.8,13.2,8.2,19.7,12.3c0.5,0.3,0.9,0.8,1.9,1.7
			c-2.4,0-4.1,0-5.7,0c-119,0-238,0-357.1,0c-1.3,0-2.6,0.1-3.8,0.1c0-73.9,0-147.8,0-221.7c1.1,3.2,1.9,6.5,3.5,9.5
			c3.6,6.8,9.6,10.9,16.4,14.1c7.4,3.4,15.3,5.2,24,6.2c-1.4,0.4-2.2,0.6-3,0.9c-9.4,2.7-17.2,7.9-22.3,16.4c-6,9.9-4,18.7,5.6,25.1
			c9,6,18.5,6.9,28.8,3.7c34.3-10.6,67.5-24,100.1-38.8c2.7-1.2,5.3-2.6,8-3.9c-16.4,5.5-32.6,11.5-48.9,17.2
			c-20.6,7.2-41.3,14.3-62,21.3c-10.2,3.5-19.3,1.1-27.3-5.8c-4-3.4-5.2-7.8-3.6-12.9c2.6-8.3,8.2-14,15.4-18.3
			c3.9-2.4,8.1-4.3,12.8-4.7c8.7-0.6,17.6-0.8,26.2-2.1c24.1-3.7,48.2-7.9,72.3-12c7.2-1.2,14.3-2.7,21.5-4.1c-3-0.1-6,0.2-8.9,0.5
			c-15,1.8-30,3.4-44.9,5.3c-17.6,2.3-35.1,5-52.6,7.1c-13.1,1.6-26,0.2-38.4-4.8c-14.4-5.8-20.8-16-18.8-30.7
			c1.8-13.2,10.6-17.6,21.8-12.9c12.3,5.1,24.9,8.6,38.1,9.9c19.1,1.9,38.3,0.6,57.5,0.3c9.9-0.1,19.9-2.8,29.8,0.5
			c2.6,0.8,5.6,0.1,8.5,0.1c-1.4,5.2-0.1,9.1,4,11.6c3.7,2.2,7.8,2.5,12,2.2c-0.7-0.8-1.5-1.3-2.3-1.8c-2.3-1.4-4.8-2.6-7-4.2
			c-2.2-1.5-3.3-3.6-2.7-6.4c0.6-2.7,2.7-3.1,5.2-2.9c-0.7-1.1-1.3-2-1.9-3c0,0.2,0,0.4,0,0.7c-5.1-0.3-10.3-0.3-15.4-0.9
			c-2-0.2-4-1.4-5.7-2.6c-2.1-1.5-2-2.7,0.2-4.1c1.5-0.9,3.1-1.7,4.8-2.4c1.5-0.6,3-1.1,4.4-1.5c-1.8-0.8-3.7-1.3-5.4-2.3
			c-3.1-1.9-6.2-4-9.1-6.1c-3.7-2.7-4.2-4.9-2.1-9c3.5-6.9,10.5-10.8,18.1-9.8c3.8,0.5,7.6,1.3,11.6,2c-2.1-1.7-4-3.2-5.8-4.9
			c-7.1-6.3-7.3-11.5-0.7-18.4c2.9-3,6.2-4.1,9.9-2.6c4.2,1.6,8.2,3.7,12.2,5.7c2.8,1.4,5.6,3,8.3,4.6c-0.4-1.2-1.2-1.9-1.9-2.6
			c-5.5-5.7-9.8-12.2-11.4-20.2c-1.1-5.7,1.2-9.6,6.8-10.9c2.1-0.5,4.8-0.6,6.7,0.3c5.2,2.4,10.2,5.3,15.3,8.1
			c0.9,0.5,1.7,1.1,2.5,1.6c-4.8-6.2-10.3-11.5-17.8-14.1c-5.4-1.9-10.3-0.7-14.5,3c-4,3.5-4.6,8.2-3.3,13.1
			c0.9,3.2,2.3,6.2,3.5,9.3c-11.8-4.5-15.8-3.8-21.6,3.8c-2.2,2.9-3.8,6.1-3.6,9.9c0.2,3.9,2.5,6.7,5.8,9.7
			c-7-1.9-12.9-1.2-18.2,2.8c-0.5,0.4-1.6,0.2-2.2-0.1c-6.1-3-12.1-6.2-18.3-9.1c-20.6-9.8-41.5-18.8-63.6-25.1
			c-3-0.8-6.1-1.4-9.1-2.1c30.1,13.5,60,27.4,91.4,37.6c-1.4,2-2.9,3.6-3.9,5.4c-3.3,5.8-3.4,12.1,4.5,15.9c2.7,1.3,5.3,2.7,7.8,3.9
			c-2.3,1.3-4.7,2.6-7.1,3.9c-2.3-1.2-4.7-2.6-7.2-3.7c-11-5-22.4-8.7-34.2-11.1C81,235.9,63.5,233,46,229.8c-2.3-0.4-4.7-0.8-7-1.1
			c-0.1,0.3-0.1,0.7-0.2,1c9.5,2.6,18.9,5.4,28.5,7.7c21.1,5.1,42.2,9.9,63.4,14.9c3.1,0.7,6.1,2,7.9,2.6c1.4,3.5,2.4,6,3.3,8.2
			c-8.4,0-17.1,0.2-25.8,0c-19.9-0.4-39.9,0.1-59.7-3.2c-14.2-2.4-27.9-6.4-39.4-15.6c-5.8-4.7-9.8-10.6-9.1-18.4
			c0.5-6.1,1.9-12.1,8.6-14.5c6.5-2.4,13.2-2.8,19.9-0.2c4.5,1.7,9.2,3.2,13.9,4.2c19.8,4.4,39.6,8.5,59.4,12.9
			c5.8,1.3,11.6,2.9,17.4,4.4c-1.4-1-2.9-1.8-4.5-2.3c-14.2-4.3-28.4-8.8-42.8-12.8c-12.4-3.4-24.9-5.9-37.3-9.3
			c-7.7-2.1-14.8-5.8-20.5-11.6c-3.1-3.2-4.2-6.9-3-11.2c1.8-6.4,4.5-12.3,8.6-17.5c4.3-5.4,10-8.1,17-7.7c1.5,0.1,3.1,0.3,4.6,0.4
			c-7.3-2.9-14.2-2.2-20.5,2.6c-6.3,4.7-9.7,11.5-12.6,18.6c-3.3,8.1-1.7,14.3,4.9,20.2c1.6,1.4,3.3,2.6,5.2,4.2
			c-1.2,0.1-2,0.2-2.9,0.2C14.5,206.9,7.7,210,4.9,219c-3.1,9.8-1.3,18.5,6.2,25.7c2.8,2.7,5.8,5.2,8.7,7.9
			C8.6,252.2,3.5,256.2,0.9,267C0.6,268,0.3,269.1,0,270.1z M465.4,164.4c2,1.5,3.9,2.9,5.9,4.4c0.2-0.2,0.4-0.4,0.6-0.6
			c-2.1-4.1-4.3-8.2-6.3-12.4c-1.4-2.9-2.6-5.9-3.8-8.8c1.4,1.2,2.7,2.3,4.1,3.5c0.2-0.2,0.4-0.4,0.5-0.6c-0.2-0.6-0.4-1.3-0.5-1.9
			c-0.8-4.5-2.5-9-1.3-13.7c0.1-0.5-0.3-1.2-0.5-1.8c-1.7,0.7-1.3-0.9-1.7-1.5c-0.5-0.7-0.7-1.5-1.1-2.4c-0.5,0.4-0.8,0.7-1.7,1.5
			c-2.6-6.2-5.1-12.2-7.8-18.6c-0.3,1.3-0.6,2.2-0.7,3.1c-0.7,7.5,1.4,13.9,6.9,19.2c0.7,0.7,1.1,1.9,1.4,3c0.8,3.1,1.4,6.3,2.1,9.4
			c-2.1,1.7-1.9,4.2-1.4,6.2c1,3.7,2.6,7.2,3.9,10.8c-1-1.1-2-2.1-3.1-3.3c-1.9,6.2,5.9,16.8,12.9,17.5c-0.7-1.3-1.2-2.4-1.9-3.4
			C469.7,170.6,467.5,167.5,465.4,164.4z M466,214.8c-0.8-0.7-1.5-1.5-2.3-2.2c0.5,8.4,5.6,14.8,8.7,22.1c0.6-2.2,1.1-4.4,0.9-6.5
			c-0.5-4.8-3.1-8.7-6-12.4c1.5,0.9,3,1.8,4.5,2.7c0.2-0.2,0.5-0.3,0.7-0.5c-1.7-3.7-3.4-7.3-5.1-10.9c0.8,0.4,1.6,0.9,2.9,1.6
			c-1.4-7.5-5.1-13.4-8.3-19.9c-2.6,5.1-0.4,9.4,1.6,14.1c-1.3-0.9-2.1-1.5-3.1-2.2c-0.2,3.6,1.1,7.1,3.7,10.9
			C464.7,212.7,465.4,213.8,466,214.8z M435.7,41.2L435.7,41.2c2.2-1.1,4.3-2.2,6.3-3.3c-10.6-1.1-13.8,6.9-17.6,14.5
			c-0.2-4.1-0.2-8,0.5-11.9c0.3-1.6,1.6-3.5,2.9-4.4c2.1-1.4,4.6-2.3,7-2.9c2.1-0.6,4.4-0.4,6,1.8c-0.6-1.2-1.4-2.2-2.2-3.1
			c-0.1-0.1-0.3-0.2-0.4-0.3c-6.4-2.7-16.1,1.7-17.4,8.4c-0.9,4.6-1,9.4-0.8,14.2c0.2,4.4,1.3,8.7,2,13c-0.2,0.1-0.4,0.2-0.5,0.3
			c-10.5,1.2-18.4,18.2-12.6,28.8c1.5,2.8,3.9,4.7,7.2,5c-2.6-2.2-4.3-5-4.5-8.3c-0.6-8,1.7-15.1,7.1-21.2c1.1-1.2,2.8-1.8,4.1-2.7
			c0.5-0.3,1.3-0.7,1.4-1.2c1.4-4.1,2.8-8.3,4.2-12.6c3.1,2.3,4.5,2.7,7.4,2.3c4.7-0.7,8.1-4.7,7.7-9.3
			C442.8,43.6,440.3,41.2,435.7,41.2z M218.4,279.9c-1.4,2.3-2.8,4.6-4.1,7c-1.1,2.2-1.1,4.4,1.2,6c-6.1,2.7-10.7,6.5-12.6,13
			c-1.5,5.2,1.3,8.9,6.7,8.8c7.4-0.1,13.9-2.7,20.1-6.7c0.1-0.1,0-0.3,0.1-0.6c-0.8,0.1-1.5,0.2-2.3,0.3c-5.8,0.8-11.6,1.6-17.5,2.2
			c-2.4,0.2-3.4-1-2.7-3.3c0.9-2.6,2.2-5.2,3.6-7.5c2.1-3.4,4.5-6.7,9.3-6.3c0,0,0.1-0.3,0.2-0.5c-0.5-0.1-1-0.1-1.5-0.2
			c-3.8-0.5-4.6-1.9-2.2-4.9c6.9-8.9,14.5-17,25.6-20.7c4.8-1.6,9.5-3.7,14.3-5.6c-0.1-0.3-0.2-0.6-0.2-0.9
			c-8.1,1.7-16.3,3.2-24.4,5c-4.1,0.9-8,2.2-12.1,2.9c-2.7,0.5-3.8-0.8-2.8-3.4c1-2.5,2.3-5,4-7c3.3-3.8,6.9-7.3,10.4-10.8
			c1.4-1.4,2.9-2.7,4.3-4c-0.2-0.2-0.3-0.3-0.5-0.5c-0.3,0.2-0.7,0.4-1,0.6c-5.9,5-13,7.5-20.3,9.6c-8.1,2.3-16.1,5-23.1,10
			c-6.8,4.9-10.8,11.3-11.3,20.1c1.8,0.3,3.4,0.6,5.3,0.9c-2.1,1.8-4.1,3.3-5.8,5.1c-3.1,3.4-6.2,7-8.9,10.7
			c-1.4,1.8-1.6,4.3,0.2,6.1c1.8,1.9,4,2,6.4,1.2c1.6-0.5,3.3-1,4.9-1.5c-0.3,0.8-0.8,1.2-1.3,1.7c-4.9,4.6-9.9,9-12.8,15.2
			c-1.1,2.3-1.6,4.5-0.2,6.8c1.4,2.3,3.8,2.6,6.3,2.4c0.8-0.1,1.5-0.1,2.3-0.3c10.6-2.8,19.6-8.7,28.7-14.6
			c-1.1,0.1-2.1,0.4-3.1,0.7c-8.3,3-16.6,6.1-25,8.9c-1.6,0.5-3.4,0.4-5.8,0.6c0.9-2.1,1.3-3.7,2.2-4.8c3.5-4.4,6.7-9.1,10.7-12.9
			c6.7-6.4,13.8-12.3,20.9-18.3c4.1-3.5,8.2-6.8,12.4-10.2C217.4,280.1,217.9,280,218.4,279.9z M253.9,395.7c-3.5-0.9-3.9-1.8-2-4.3
			c1.9-2.4,4.3-4.4,6.7-6.8c-0.4-0.6-0.9-1.5-1.3-2.2c-1.7,0.2-3,0.6-4.3,0.5c-2.1-0.2-4.1-1.2-4.7-3.4c-0.6-2.3,1.3-3.3,2.8-4.3
			c1.2-0.8,2.5-1.4,3.8-2c2-1,3.9-2.1,5.9-3.1c-3.5-0.3-6.8,0-10.1,0.2c-1.5,0.1-3.5,0.3-3.8-1.6c-0.1-1,1.2-2.3,1.9-3.4
			c0.1-0.1,0.1-0.3,0.3-0.6c-0.4-1-0.9-2-1.2-2.7c-3,0.6-5.7,1.4-8.5,1.5c-2.5,0.2-3.4-1.3-2.6-3.6c0.5-1.4,1.3-2.7,1.9-4
			c-1.2,0.8-2.5,1.6-2.9,2.7c-1.3,3.5-4.2,4.7-7.1,6c-3.5,1.6-7.1,2.8-10.6,4.3c-3.2,1.4-6,0.7-8.9-0.7c0.1-0.7,0.2-1.5,0.3-2.1
			c-1-0.5-1.9-0.9-2.7-1.3c0.1-0.2,0.3-0.4,0.4-0.6c7.2,2.6,24.1-9.3,27.3-16.3c-1.4,0.7-2.6,1.3-3.7,1.9
			c-6.4,3.4-12.8,6.8-19.2,10.1c-2.7,1.4-4,0.5-4-2.6c0-1,0.2-2,0.3-2.9c9.5,1,16.2-4,19.1-14.4c-2.2,1.8-3.9,3.2-5.7,4.6
			c-1.9,1.5-3.8,3.2-5.9,4.4c-3.8,2.1-9.1,0.8-11.8-2.6c-0.4-0.5-0.5-1.1-0.7-1.8c9.8,0,18.8-5.4,18.9-11
			c-9.8,5.2-15.1,7.2-18.2,6.7c9.9-4.9,11.7-6.2,13.3-9.8c-7.5,4-15.5,5.8-23.7,7c-3.4,0.5-3.6,0-2.8-3.2c0.7-2.6,1.4-5.1,2.2-7.7
			c-0.9,0.3-1.4,0.7-1.8,1.3c-1.2,1.8-2.6,3.6-3.6,5.6c-2.7,5.3-0.5,8.8,5.6,8.8c0.8,0,1.6,0.1,2.3-0.1c2.6-0.8,5-0.7,6.7,2
			c-1.6,4.8,2.3,6.9,4.8,9.2c-0.6,2.3-1.2,4.4-1.6,6.5c-0.3,1.8-0.3,3.6-0.5,5.4c-0.2,2.1-0.9,4.3-0.5,6.2c0.3,1.5,2,2.7,3.1,4.1
			c-0.8,1-1.7,2.2-2.5,3.5c-0.8,1.3-1.6,2.6-2.1,4.1c-1.2,3.2,0.1,6.1,3.2,7c0.6,0.2,1.2,0.2,1.5,0.3c-2.8,4.1-5.8,7.9-8.2,12.1
			c-2.2,3.7-1.6,5.3,1.3,8c-1,1-2,2.1-3,3.1c-4.9,5.1-8.3,11.2-10.5,17.9c-1.5,4.4,1.1,7.7,5.8,7.4c1.8-0.1,3.7-0.7,5.5-1.1
			c0.7-0.1,1.3-0.4,2.6-0.7c-5.7,7.1-10.4,13.9-10.6,23c1.1-0.3,1.9-0.4,2.7-0.7c15-6.2,29-13.7,40-26.1
			c11.9-13.3,23.8-26.7,36-39.6c3.9-4.1,8.7-7.3,13.5-10.4c12.6-8.1,23.9-17.8,34.1-28.7c11.7-12.4,23.3-24.9,34.7-37.5
			c2.8-3.1,5.2-6.8,6.9-10.6c2.1-4.7,1.4-9.5-1.9-13.8c3.5,8.3,0.2,14.7-5.5,20.5c-1.1,1.2-2.4,2.2-3.5,3.3c-9,9-18.4,17.7-27,27.2
			c-13.1,14.3-26.8,27.8-42.3,39.5c-4.3,3.3-7.7,7.8-11.5,11.8c-1,1-1.7,2.3-2.8,3.3c-9.3,8.7-18.6,17.3-27.9,25.9
			c-5.5,5.1-9.9,11.5-16.5,15.5c-5.2,3.1-10.2,6.5-15.4,9.6c-2.6,1.6-5.3,2.9-7.9,4.4c-0.2-0.2-0.5-0.4-0.7-0.6
			c1.8-3.5,3.5-7.1,5.5-10.4c3.3-5.3,7.2-9.9,12.9-13.1c4.1-2.3,8.3-5,11.5-8.4c7.8-8.5,15-17.5,22.4-26.3c-0.2-0.2-0.3-0.3-0.5-0.5
			c-0.9,0.8-1.9,1.6-2.7,2.5c-4.8,4.9-9.7,9.6-14.3,14.6c-9.3,10.1-21,16.7-33.4,22c-1.5,0.7-3.3,0.7-5.8,1.2
			c2.7-7.2,5.4-13.4,10.3-18.3c9.2-9,18.7-17.7,28-26.5c3.1-3,6.1-6,9.2-9c-0.1-0.1-0.2-0.3-0.3-0.4c-3.2,2.5-6.4,4.9-9.7,7.4
			c-0.1-0.1-0.2-0.2-0.3-0.3c0.7-1.1,1.3-2.2,2-3.4c-8.8,6.8-17,14-26.5,19.8c4-6.6,8.5-12.7,12.9-19c1.2-1.7,2.1-3.7,3.1-5.5
			c-0.2-0.1-0.4-0.2-0.6-0.3c-3.7,2.3-7.5,4.6-11.2,6.9c-0.3-0.3-0.6-0.6-0.9-0.8c1.3-3.1,2.6-6.2,4-9.2c0.2-0.4,1-0.5,1.6-0.6
			c8.8-1.3,16.4-4.9,22-11.1c2.9,1.2,5.5,2.2,7.6,3.1c1,2.4,2,4.7,3.1,7.3c-3,5.6-1.3,9.2,6.8,12.8c-0.4,0.7-0.9,1.5-1.2,2.2
			c-0.4,0.8-0.7,1.6-0.9,2.4C248.5,395.1,250,396.6,253.9,395.7z M162.5,188c-14.5-13.4-29.2-26.7-43.5-40.4
			c-11.4-10.9-22.5-22.3-33.6-33.6c-5-5.2-5.7-11.9-1.7-17.8c6.9-10.1,16.5-15.3,28.9-14.4c5.4,0.4,10.5,1.8,12.3,8
			c0,0.2,0.2,0.3,0.3,0.4c8.5,12.1,16.8,24.4,25.6,36.3c6.1,8.3,13,16,19.5,23.9c0.7,0.9,1.6,1.6,2.5,2.4
			c-7.5-11.1-15.2-21.9-22.6-32.9c-7-10.4-14-20.8-20.4-31.5c-4-6.7-7.1-14.1-10.3-21.3c-1.3-3-0.8-6.2,1.2-9
			c4.5-6.4,10.4-10.9,18.1-13c3.9-1.1,7.9-1,11.2,1.7c4.1,3.2,7.6,6.9,9.6,12c5.9,15,11.8,30.1,18,45c6.2,14.7,12.7,29.3,19.4,43.8
			c2.4,5.3,5.6,10.2,8.4,15.3c0.2-0.1,0.4-0.2,0.6-0.3c-1.5-3-3.2-5.9-4.4-9.1c-7.3-18.2-14.5-36.5-21.7-54.7
			c-5.1-13.1-10-26.2-15-39.3c-2.5-6.5-5.2-12.9-7.6-19.5c-2.2-6-0.9-11.5,4-15.8c3.7-3.2,7.5-6.6,11.7-8.9
			c10-5.6,20.2-3.1,25.8,6.7c3.2,5.6,5.2,11.8,7.6,17.8c0.2,0.5,0.2,1.2,0.1,1.8c-1.3,6.7,0.1,13.3,1.9,19.6
			c7.9,28.4,18.2,55.9,29.2,83.2c0.9,2.2,1.9,4.4,2.8,6.6c0.2-1.1,0-2.1-0.3-3.1c-6.7-21.5-13.4-43-20-64.5c-3.1-10-6.1-20-8.5-30.1
			c-0.9-3.8-0.8-8.1-0.2-12.1c0.7-4.1,4.5-5.5,8.1-3.3c1.8,1.1,3.6,2.7,4.9,4.4c2.1,2.7,3.9,5.6,5.6,8.5c1.8,3.1,3.4,6.3,4.8,9.6
			c1.4,3.2,2.3,6.5,3.5,9.7c0.1-1.5,0-2.9-0.3-4.3c-2-9.2-5.7-17.6-10.9-25.4c-1.5-2.2-3.5-4.2-5.7-5.7c-4.5-3.1-9.2-2.2-12.6,2.1
			c-0.4,0.5-0.8,1-1,1.2c-2.1-5.6-3.8-11.3-6.4-16.6c-5.2-10.8-16.1-15-27.3-10.8c-7.6,2.8-13.8,7.7-18.8,14
			c-3.1,3.9-4.1,8.4-3.1,13.2c0.8,3.7,1.8,7.4,2.7,11c-0.7-0.1-1-0.7-1.4-1.1c-3.9-4.8-9-6.5-15-5.4c-8.4,1.5-15.1,6-20.4,12.5
			c-3.3,4.1-4.3,8.6-2.9,13.6c0.5,1.9,1.1,3.8,1.9,5.6c1.2,2.9,2.6,5.6,3.9,8.5c-0.4,0-0.6,0.1-0.7,0c-12.5-5.8-23.8-3-34.1,5.2
			c-10.9,8.7-12.2,21.3-2.5,31.5c21.1,22.3,43.6,43.1,68.2,61.6C155.3,183.3,159,185.6,162.5,188z M306.7,156.3c0.2-1,0.5-2,0.6-2.9
			c1.4-8.7,1.1-17.5-0.4-26.2c-0.8-5-2.1-10-3.9-14.7c-1.8-4.8-4.3-5.7-9.1-4.3c0-3.8,0.3-7.7-0.1-11.5c-0.4-4.4-1.7-8.7-4.4-12.3
			c-4.4-5.9-11.4-5.7-15.5,0.3c-0.5,0.7-1,1.4-1.3,2.2c-4,9.9-7.3,20-7.8,30.7c-0.7,15.1,2.8,29.7,4.8,44.5c0.1-6.1,0.3-12.2,0-18.3
			c-0.4-10.3-1.6-20.6,0.4-30.8c1.6-8.2,4-16.3,6.8-24.2c2.1-5.9,7.1-6.2,10.7-1c0.8,1.1,1.5,2.3,2,3.5c2.2,5.2,3.5,10.7,3.4,16.4
			c0,0.9-0.2,1.8-0.6,2.7c-1.2,3.2-2.8,6.2-3.6,9.5c-3.5,13.8-4.7,27.8-5.1,42c-0.1,4.8,0.2,9.7,0.3,14.6c1.5-8.3,2.3-16.7,3.8-25
			c1.9-11.3,4.3-22.5,6.6-33.7c0.4-1.9,1.5-3.7,2.3-5.5c0.4,0,0.8,0,1.2,0.1C304.6,126.1,306,141.1,306.7,156.3z M469.1,235.5
			c-0.2,0-0.4,0-0.6,0.1c0.1,1.4,0.5,2.9,0.4,4.3c-0.5,7.9-0.6,15.8-1.6,23.6c-2.4,18.5-8.6,36-19.9,50.7
			c-22.6,29.4-47.8,56.5-78.1,78.5c-5.3,3.9-10.3,8.2-15.4,12.3c0.1,0.2,0.3,0.3,0.4,0.5c2-1.4,4-2.7,6-4.1
			c11.5-8.1,23.5-15.5,34.4-24.3c18-14.7,33.7-31.9,48.7-49.8c7.5-9,13.7-18.7,18.2-29.6c7.1-17.1,9.7-34.8,8.8-53.1
			C470.3,241.5,469.6,238.5,469.1,235.5z M417.5,55c-6.4,5.8-9.7,13.3-12,21.3c-4.1,13.8-5.2,28.1-5.2,42.4c0,7.2-1.6,13.8-5.9,19.6
			c-6.3,8.4-12.5,17-19.2,25.1c-11.2,13.5-23.6,25.6-39,34.5c-5.6,3.3-10.8,7.5-16,11.4c-1.8,1.4-3.4,3.2-5.6,5.3
			c2.9,1.1,5,1.9,7.2,2.7c0.1-0.2,0.1-0.3,0.2-0.5c-1.6-0.8-3.3-1.6-5.2-2.5c1.1-0.9,1.8-1.7,2.6-2.2c5.2-3.4,10.4-6.7,15.7-10.1
			c7.3-4.6,15.2-8.6,21.9-14c15.3-12.5,28-27.6,39.3-43.7c5.7-8.1,8.5-16.7,8.3-26.7c-0.2-10,0.5-20.1,1.5-30
			C407.3,75.9,410,64.6,417.5,55z M162.1,338.7c-0.1-0.2-0.2-0.5-0.3-0.7c-0.7,0.3-1.4,0.6-2,0.9c-9.9,4.8-19.9,9.6-29.8,14.5
			c-11.4,5.6-22.9,11.2-34.2,17.1c-10.2,5.3-20.1,11-30.4,16.3c-5.5,2.8-11.6,3.8-17.9,2.9c-3.5-0.5-6.3-2.1-7.3-5.8
			c-1.2-4.6-1.2-9.2,0.6-13.8c1.9-4.9,5.6-7.9,10.3-10c-1.2,0.1-2.4,0.3-3.4,0.7c-7.3,3-11.9,11.1-11.1,19.8
			c0.7,8.8,4.5,12.6,13.3,13.3c7.7,0.6,14.9-1.3,21.6-4.9c18.1-9.8,36.2-19.6,54.2-29.6C137.9,352.6,149.9,345.6,162.1,338.7z
			 M78,121.5c0-0.2,0-0.4,0-0.7c-2-0.5-4-1.3-6.1-1.4c-11.4-0.5-20.1,4.8-27.2,13.1c-3.1,3.5-3.7,8.1-2.2,12.5c1,3,2.5,6,4.2,8.6
			c4.2,6.6,10.8,10.8,17.3,14.9c21.2,13.4,43.5,25,65.9,36.3c1.9,1,3.8,2,5.8,2.9c0.1-0.2,0.2-0.4,0.3-0.6
			c-8.3-5.2-16.5-10.4-24.8-15.6c-16.7-10.3-33.4-20.4-50-30.7c-5.3-3.3-9.7-7.5-12.9-12.9c-3.8-6.4-3.1-12.1,2.4-17
			C58.3,124.2,66.6,118.5,78,121.5z M268,84.8c0.1,0,0.3,0,0.4,0c0-3.9,0.2-7.8-0.1-11.7c-0.3-4.7-1-9.3-3.4-13.5
			c-3.1-5.3-8.9-6.9-14-3.6c-2.2,1.4-4.2,3.3-5.6,5.5c-5.5,8.4-7.9,17.9-7.3,27.9c0.9,18.5,3.6,36.9,7.7,55
			c0.9,4.1,2.2,8.1,3.3,12.2c0.2-0.1,0.4-0.1,0.7-0.2c-0.1-0.7-0.2-1.5-0.3-2.2c-0.6-4.1-1.3-8.2-1.8-12.4
			c-1.4-12.8-2.8-25.5-3.9-38.3c-0.7-8.2-1.8-16.5-0.2-24.7c1.3-6.4,2.9-12.7,7.4-17.7c4.3-4.8,9.6-4.1,12.3,1.7
			c1.5,3.4,2.5,7,3.2,10.7C267.2,77.2,267.5,81,268,84.8z M256.4,177.3c-1.1-5-3.7-9-7.5-12.2c-8.2-7.2-19-4.2-22.4,6.2
			c-0.6,1.9-0.9,3.8-1.4,5.9c-1.2-1.9-2.1-3.7-3.2-5.4c-3.9-5.3-11.4-6.4-16-2.4c-2.2,1.9-2.8,4-1.5,6.6c1.3-3.4,4-4.3,7.2-4.4
			c3.3-0.1,6.1,1.4,8.5,3.6c2.2,2.1,6,2.9,5.8,7.1c0.5-0.9,0.6-1.7,1-2.5c1.6-3.4,2.9-6.9,4.9-10c2.2-3.4,5.9-4.7,9.9-3.7
			c3.9,1,6.7,3.9,9.3,6.9c2.6,3.1,4.7,6.4,4,10.8c0.7-1.1,1.3-2.2,1.5-3.4c0.5-2.7,0.9-3,3.7-2.5c10.6,1.6,22.9,14.2,18.8,26.7
			c3.2-3.8,4.6-7.5,3.8-11.8c-1.1-5.7-4.3-10.3-8.9-13.5C268.5,175.7,262.7,174.3,256.4,177.3z M299.5,351.8
			c-0.2-0.1-0.4-0.3-0.6-0.4c-0.5,0.4-0.9,0.9-1.4,1.3c-3.5,3.1-6.8,6.4-10.5,9.4c-3.5,2.8-7.4,5.1-12,5.9c-2.9,0.5-4.1-0.6-3.1-3.3
			c1.5-4,3.6-7.8,5.4-11.7c0.2-0.5,0.5-0.9,0.8-1.3c-4.6,2.3-7.6,6-9.6,10.6c-1.4,3.3-1.8,6.6,0.9,9.3c-1.3,2.2-2.9,4.1-3.7,6.2
			c-0.5,1.5-0.4,3.8,0.5,4.9c1,1.2,3.4,1.9,4.9,1.7c2.3-0.4,4.6-1.5,6.4-2.9c7.7-5.7,15.2-11.8,21.5-19.2c3.5-4.1,6.8-8.4,10.2-12.6
			c-0.2-0.2-0.4-0.4-0.6-0.6c-4.9,4.2-9.8,8.3-15.3,13C295.6,358.2,297.5,355,299.5,351.8z M308.4,266.6c-0.6-1-0.9-1.5-1.2-2
			c-2.7-3.8-2.4-4.7,2-6.5c3.8-1.5,7.8-2.2,12.1-0.8c-0.1-1-0.1-1.6-0.3-2.3c-0.6-3.1,0-4.2,3.1-4.9c1.2-0.3,2.5-0.3,3.8-0.1
			c2.3,0.4,4.6,1,6.9,1.6c0.1-0.1,0.1-0.2,0.2-0.3c-2.3-1.7-4.5-3.3-7.1-5.2c5.1-3.3,9.1-0.6,13.3,1c-2.2-1.7-4.5-3.3-7-4.3
			c-3.6-1.4-6.4-0.2-8.7,3c-0.3,0.4-0.9,0.6-1.5,0.7c-3.1,0.5-5.7,1.6-7,4.7c-0.2,0.5-1.3,0.8-2,1c-3.3,1-6.7,1.7-10,2.9
			c-2.6,1-4.2,3.1-4.5,6c-0.1,0.6-0.5,1.2-0.9,1.7c-2.8,3.1-2.6,8,1.1,9.9c3.1,1.6,5.7,3.7,8.5,5.5c4.3,2.7,9,4,14.1,2.5
			c2.2,4.1,4.1,5.2,7.7,4c5.6-1.9,9.9-5.9,14.1-9.9c-0.8,0.1-1.4,0.5-2.1,0.9c-4,2-7.9,4.3-12,6c-3,1.2-4.2,0.1-4-3.3
			c0.1-1.6,0.3-3.2,0.5-5.3c-1.3,1-2.2,2-3.2,2.4c-1.9,0.7-4.1,1.8-5.9,1.5c-2.7-0.6-5.9-1.7-7.5-3.7c-1.4-1.8-2.3-2.9-4.5-3.3
			c-1.7-0.3-3.9-0.5-3.8-3.4C304.4,266.6,306.1,266.6,308.4,266.6z M43.3,279.8c39.3-1.7,78.7-3.5,117.7-2
			C143.8,271.4,83.2,270.4,43.3,279.8z M224.2,160c-12.3-35.3-22.8-71.2-38.9-105c2.1,8.4,4.4,16.7,7,25
			c7.3,23.3,15.1,46.4,25.6,68.5C219.8,152.4,222.1,156.1,224.2,160z M378.9,469.8c-3.2-1.7-6.4-3.5-9.8-4.9
			c-3.1-1.2-6.3-2.1-9.5-2.7c-5.5-1-11.1-2-16.7-2.5c-8.1-0.7-13.9-4.3-17.2-11.9c-3.5-8-7.2-15.9-10.8-23.9
			c-0.4-0.9-0.8-1.8-1.4-3.1c-0.1,0.8-0.2,1.1-0.1,1.3c0.2,0.9,0.3,1.8,0.5,2.7c2.6,10.7,5.7,21.2,11.5,30.6
			c2.3,3.7,5.3,6.4,9.7,7.3c3.3,0.7,6.7,1.3,10,2c0.2,0,0.4,0.1,0.9,0.3c-0.7,0.4-1.2,0.7-1.6,1c6.6-0.5,12.7,1,18.6,3.3
			C368.2,471.4,373.5,471.3,378.9,469.8z M194,161c-4.5-17-42.2-81.9-50.2-86.6C159.6,103.9,175.5,133.2,194,161z M321.6,201.5
			c0-0.2,0-0.4,0-0.6c-1.7,0-3.5-0.1-5.2,0c-9.1,0.9-18.3,1.6-27.4,2.9c-18.7,2.6-34.2,11.4-46.8,25.4c-2.6,2.9-4.8,6.2-7.2,9.3
			c0.2,0.1,0.3,0.3,0.5,0.4c0.3-0.2,0.5-0.4,0.8-0.6c16.5-17.1,36.5-27.5,59.8-31.8C304.6,204.9,313.1,203.2,321.6,201.5z
			 M243.4,151.8c0.3-0.8,0.5-1,0.5-1.1c-2.2-14.2-4.1-28.4-6.7-42.5c-2.6-14-6-27.9-9.1-41.8c-0.2-1-0.7-1.8-1.1-2.8
			c0.8,9.9,1.8,19.7,3.1,29.5c2.2,16.4,5,32.8,9.7,48.7C240.8,145,242.1,148.1,243.4,151.8z M140.4,192.4
			c-25.1-13.2-46.9-31.2-70.7-46.2c0.8,1.2,1.6,2.2,2.6,3.2c13.4,13.5,28.5,24.8,45,34.1C124.5,187.6,131.9,191.2,140.4,192.4z
			 M104.1,114.2c0.3,0.5,0.6,0.9,1,1.4c11.6,14.9,24.3,28.9,38.7,41.1c5.8,4.9,12.4,8.9,18.7,13.2c0.9,0.6,2.1,0.8,3.9,1.5
			C144.1,153.2,126.1,131.5,104.1,114.2z M70.7,323.8c0.1,0.2,0.2,0.4,0.2,0.6c26.9-6.8,53.7-13.7,80.6-20.5
			c-0.1-0.3-0.1-0.5-0.2-0.8C123.2,305.2,96.1,311.3,70.7,323.8z M391.2,485.5c-4.5-5.5-9.6-9.9-16.2-11.4c-9.9-2.3-20-3.8-30.1-5.6
			c-0.1,0.4-0.2,0.8-0.3,1.2c8.4,2.3,16.7,4.5,25.1,6.8c-0.1,0.3-0.1,0.6-0.2,0.9c-8.8-1.4-17.5-2.9-26.3-4.3
			c-0.1,0.3-0.1,0.5-0.2,0.8c6.7,2.1,13.3,4.6,20.1,6.1c8.6,1.9,17.8,1.8,24.6,8.9C389,487.7,390.1,486.6,391.2,485.5z M458.2,43.4
			c0.2,0,0.3,0,0.5,0.1c0.4-1.2,0.9-2.3,1.1-3.5c0.6-4.3,1-8.6,1.5-12.9c0.7-6.5,3.2-11.6,10-13.6c5.5-1.6,11-2.7,15,3.7
			c-0.1-3.3-1.5-5.3-3.9-6.8c-6.7-4.1-18.8-1-22.6,5.8c-1.2,2.1-2.7,3.4-4.8,4.2c-3.9,1.5-7.9,2.8-11.7,4.4c-2,0.9-3.8,2.2-5.7,3.4
			c0.1,0.3,0.3,0.5,0.4,0.8c6.8-0.1,13.4-0.8,18.9-5.4C457.3,30.4,457.8,36.9,458.2,43.4z M256.2,81.9c0.1,26.4,1.3,52.7,6.4,78.7
			C263.8,134.1,262.5,107.8,256.2,81.9z M297.1,410.3c-3.5-3.1-7-5.4-11.8-2.7c2.3,1.7,4.6,3.7,7.2,4.4c3.5,1,5.5,3.2,6.8,6.1
			c6.1,13,11.4,26.2,15.8,39.9c0.8-16.8-4.9-31.3-15.8-44.3c3.2-2.1,6.2-4.6,6.3-9.2C301.9,405.1,299.5,407.5,297.1,410.3z
			 M400.7,465.9c-2.9-4.4-6.5-7-11.3-8.3c-10.2-2.8-20.5-2.3-31-1.6c2.8,0.6,5.6,1.2,8.3,1.8c-2.8,0.4-5.7,0.9-7.9,1.2
			c4.2,1,8.9,2.1,13.7,3.2c3.4,0.8,6.7,1.9,10.1,2.5c5,0.9,10.2,0.8,14.6,4C398.4,467.8,399.5,466.9,400.7,465.9z M154.7,329.1
			c-14.1-1.6-57.9,15.2-67.2,26c2.8-1.1,5.4-2,7.9-2.9C115.3,344.8,134.4,335.3,154.7,329.1z M354.1,451.3c0,0.2,0.1,0.5,0.1,0.7
			c-1.6,0.3-3.1,0.6-4.7,1c4.2,0.7,8.4,1.9,12.8,0.5c-2.2-3.1-4.9-5.2-8.4-5.6c-3-0.3-6.1-0.3-9.1-0.1c-6.1,0.5-8.2-0.5-10.3-6.3
			c-1.8-4.9-3.2-9.8-4.6-14.8c-1.1-3.8-2-7.6-3-11.4c-0.7,9.7,0.1,19.1,3.4,28.2c2.7,7.5,6.9,9.8,14.8,8.7
			C348,451.8,351.1,451.6,354.1,451.3z M409.9,204.3c-3,0.4-6,1.4-8.8,1.1c-3.2-0.3-5.3-3.1-7.1-5.7c2.6-1.6,4.7-3.3,4.9-6.6
			c-8.5,3.7-9.9,3.2-12-4.6c-2.4,1.7-2.9,4.1-2.2,6.6c1.1,3.9,4.3,4.9,7.9,4.9c0.2,5.9,3.1,9.4,8.7,10.6c-0.3,8.4,2.4,12.5,8,12.3
			c4.1-0.2,7.1-3.9,6.6-8.4c-2.4,1.7-4.3,4.9-7.9,3.4c-3.2-1.4-3.7-4.5-4.7-7.5C406.7,209.3,409.1,207.4,409.9,204.3z M485.6,110.8
			c-3.8,2.1-6.8,0.5-9.1-0.9c-2.6-1.5-4.5-4.1-7.1-6.6c0,2.2,0,4,0,5.8c-0.2,0.1-0.4,0.1-0.7,0.2c-2.9-5.9-5.8-11.8-8.7-17.7
			c-3.2,5.4-1.3,12.7,4.2,16c1.2,0.7,1.7,1.4,1.7,2.9c-0.2,4.2,3.2,8.7,7,9.6c0.1-1.2,0.1-2.3,0.2-3.6c0.9,0.8,1.7,1.4,2.6,2.2
			c0.4-1.2,0.6-2.1,0.9-3.1c3.1,0.6,6.2,1.2,8.5-1.4C485.6,113.4,485.4,112,485.6,110.8z M315.9,196.8c0.3,0.1,0.6,0.2,0.9,0.3
			c1.3-2.5,2.8-4.9,3.8-7.5c2.2-6.3,2.1-12.9,1.3-19.4c-0.3-2.9-0.9-5.9-2-8.6c-1.5-3.6-5.1-5.1-8.6-4.3c-4.8,1.1-9.3,6-9.9,10.9
			c-0.1,1.2,0.2,2.4,0.2,2.9c1.4-2.1,2.6-4.6,4.4-6.6c2-2.1,4.6-4,7.7-3c3,1.1,3.1,4.3,3.4,6.9C317.9,178.1,319.6,187.5,315.9,196.8
			z M277.2,165.6c3.6-19,8.9-37.8,6.5-57.5C279.8,127.1,274.6,145.9,277.2,165.6z M243.7,330.4c-3.1,2.4-3.2,5.8,0.1,8.1
			c2.2,1.6,4.9,2.4,6.7,3.2c1.3,2.5,2.3,4.6,3.4,6.6c0.2,0.4,0.6,0.8,0.8,1.2c2.3,5.6,11.9,7.1,16,2.3c-4.2,0.9-8,0.3-11.7-2.1
			c1.9-1.5,3.6-2.8,5.8-4.5c-2.3,0-3.9,0.2-5.4-0.1c-1.1-0.2-2.1-1-3.1-1.5c0.5-1,0.8-2.3,1.7-3c3.1-2.4,6.5-4.6,9.7-6.9
			c-3,0.4-5.9,1.2-8.7,2.1c-3.4,1.1-6.9,1.8-10.5,1.1C244,336.1,242.9,334.7,243.7,330.4z M278.6,467.4c0.1,0.3,0.2,0.5,0.4,0.8
			c0.9,0,1.9,0.1,2.8,0c4.8-0.6,9.3,0.3,13.7,2.2c1.9,0.8,4.1,1.2,6.2,1.5c4.4,0.6,9.5-0.5,11.6-2.4c-10-0.5-14.2-1.5-18.4-4.6
			c1.6,0.1,3.1,0.3,4.6,0.8c1.7,0.6,3.3,1.4,5,2c2.6,0.9,4.4,0.5,5.9-1.3c-3.5,1-5.7-1.3-8.1-3c-3.8-2.8-8-3.7-12.3-2.1
			C285.9,462.8,282.3,465.3,278.6,467.4z M278.9,323.3c-0.1-0.2-0.2-0.4-0.3-0.6c-0.2,0-0.3-0.1-0.5,0c-6.9,2.6-12.9,0.2-18.4-3.8
			c-2.2-1.6-2.2-2.7-0.4-4.8c1.5-1.8,3-3.5,4.5-5.2c-0.1-0.3-0.1-0.5-0.2-0.8c-8.3,5.3-15.4,2.3-22.2-2.8c2,4.3,5.1,7.2,9.3,9
			c1.7,0.7,2.2,1.6,2.7,3.3c0.5,1.9,1.9,3.9,3.5,5.1c4.9,3.8,10.5,5.1,16.6,3.6C275.4,325.7,277.1,324.3,278.9,323.3z M356.2,241.4
			c1.2,0.9,2.2,1.7,3.3,2.3c3.5,1.8,7.3,1.9,11.2,1.3c0.7-0.1,1.6-0.2,2.1,0.2c3.5,2.9,7.8,3.6,12,4.5c1.3,0.2,2.7,0.8,3.7,1.7
			c3,2.4,6.5,3,9.1,1c-3.7-0.2-6.4-1.7-7.6-5.4c-0.2-0.5-1.3-0.9-2-1.1c-3.2-1-6.5-1.9-9.8-2.8c-1.8-0.5-2.3-1.6-1.5-3.5
			c1-2.3,1.6-4.7,2.4-7c-2,1.4-3.6,2.9-4.9,4.6c-2.7,3.6-6.4,5-10.7,4.9C361.1,242,358.9,241.6,356.2,241.4z M371.6,209.6
			c2.5-1.3,4.3-2.3,3.7-5.1c-5.2,3.1-10.3-1-11-9c-2.4,1.2-3.4,3.2-3.2,5.6c0.4,5.1,4,7.3,8.4,8.5c0.3,5.2,3.6,8.3,9.2,8.8
			c4.6,0.4,9.2-3.2,10.3-8.4C383.2,213.6,377.4,216,371.6,209.6z M374.3,226c-5.6,0.7-11,0.8-13.6-5.4c0.7-1,1.4-2,2.4-3.5
			c-1.4,0.4-2.1,0.6-2.8,0.8c-5,1.7-9.9,1.5-14.7-0.6c-0.9-0.4-1.4-1.4-2.4-2.4c-0.7,0.5-1.7,1.2-3.3,2.3c2.3,1.9,4,3.6,6.1,4.9
			c3.9,2.3,8.1,2,12.2,0.4c1.4,5.3,4.2,7.9,8.5,8.1C369.8,230.8,373,229,374.3,226z M251.7,319.9c0-0.2,0-0.4,0-0.6
			c-5.7,0-11.3,0-17,0c-1.9,0-3.8,0-5.6-0.4c-4.5-1-4.9-2.1-2.6-6c0.1-0.1,0-0.3-0.1-0.6c-2,0.8-3.7,1.8-4.1,4.1
			c-0.4,2.4,1,4.1,2.9,5.3c1.5,0.9,3.3,1.4,4.9,2.1c1.1,0.5,2.4,1,3.1,1.8c2.9,3.4,10.8,3.4,13.3,0.5c-3-0.4-6-0.2-8.8-2.4
			C242.8,322.3,247.3,321.1,251.7,319.9z M414.7,189.4c-1.9,3.5-0.8,7.7,2.8,11c0.6,0.5,1.1,1.6,1,2.4c-0.3,3.1,1.2,6,4.2,7.5
			c2.9,1.6,6.4,1.4,8.6-0.8c1-1,1.5-2.4,2.3-3.6c-6.5,1.8-10.9,0.5-12.6-3.7c5.4-0.4,7.5-2.3,7.3-6.7c-0.4,0.2-0.8,0.4-1.1,0.6
			c-3.4,2.2-5,2.2-7.8-0.7C417.6,193.7,416.3,191.5,414.7,189.4z M301.5,333.6c0.1,0.3,0.1,0.6,0.2,0.9c2.3-0.6,4.9-0.8,6.9-1.9
			c2.2-1.2,3.8-3.2,5.7-4.9c7.1,3.8,16.8,0,18.9-7.4c-2.9,1.4-5.7,2.9-8.7,4.1c-4.1,1.6-6.4,0.8-9.2-2.6c-0.8-1-1.6-1.9-2.5-2.9
			C307.1,330.3,307.1,330.3,301.5,333.6z M459,106.9c-2.6,10.1-0.2,15.3,8,20.6c2.5,1.6,4.2,0.8,6-0.2c0.6-0.3,0.9-1.5,0.9-2.3
			c0-0.6-0.8-1.2-1.4-2.1c-0.2,1-0.2,1.6-0.3,2.2c-2-0.2-3.1-1.2-3.8-3c-1.4-3.5-3.1-6.8-5-10.9c-0.7,1.6-1,2.3-1.4,3.3
			C460.9,111.9,459.9,109.4,459,106.9z M303.2,337.9c-5.7,1.7-11.1,2.3-16.5,1.1c-3.1-0.7-5.8-2.4-7.2-5.2c-0.6-1.2,0.1-3.1,0.3-4.6
			c-2.7,0.7-4.2,2.6-3.5,5.6c0.4,1.6,1.2,3.2,2.3,4.5C284.2,346.2,297.3,345.6,303.2,337.9z M460.3,174.5c0.9,4.4,1.3,8.4,2.6,12.1
			c1.4,4,4,7.3,8.9,9.4c-1-3.2-1.8-5.6-2.6-8.2c1.1,0.1,2.1,0.3,3.7,0.4C469.3,182.8,467,176.9,460.3,174.5z M298.7,132
			c-3.3,10.9-6.5,21.7-2.9,33.2C298.5,154.2,301.5,143.4,298.7,132z M492.4,55.5c0.7-6.4-4.2-15.5-8.8-14.4c0.9,2.4,1.7,4.8,2.7,7.4
			c-1.3-0.6-2.2-0.9-3.3-1.4c0.8,8.8,4.6,14.8,9.3,13.5c-0.9-2.1-1.7-4.2-2.8-6.8C490.8,54.7,491.4,55.1,492.4,55.5z M423.6,239.6
			c-1.8,10.5-10.2,10.1-17.5,11.4c4.6,4,14.2,3,18.6-1.9c0.6-0.7,1.6-1.3,2.4-1.3c3.2-0.2,5.5-1.9,7.9-5
			C430,244.7,426,245.2,423.6,239.6z M284.9,411.4c-3.6-1-7.3-2-11-3c0.1-1.3,0.3-2.2,0.3-3.1c0-2.5-1.7-4.1-4.1-3.6
			c-2.9,0.6-5.2,2.1-7.7,4.6c2.7-0.3,4.8-0.5,7.2-0.7c-0.8,1.7-1.4,3.1-2.1,4.4C273.3,414.1,281.3,414.7,284.9,411.4z M313.4,400.8
			c-1,2.8-0.1,4.7,1.5,6.4c1.7,1.7,3.7,2.8,6.1,2.3c0.6-0.1,1.1-0.8,1.6-1.3c0.4-0.6,0.6-1.4,1.1-1.8c1.9-1.7,4.1-3.1,5.9-4.9
			c1.3-1.4,2.3-3.1,3.4-4.7c-0.2-0.2-0.4-0.5-0.7-0.7c-2.3,1.1-4.9,1.9-7,3.3c-2.2,1.4-4.1,3.4-6,5.1
			C317.4,403.3,315.5,402.2,313.4,400.8z M343.3,249c1.9,4,3.9,7.6,5.3,11.3c1.5,4.1,2.5,8.4-1.8,12c4,0,6.6-2.1,7.1-5.9
			c0.9-6.2-1.3-11.4-6.1-15.3C346.5,250.2,344.8,249.7,343.3,249z M449.1,227c0.7,3.8,0.3,4.8-3.3,6.3c-2,0.8-4.1,1.1-6.2,1.6
			c1.2,2.1,3.7,2.9,7.6,2.1c3.8-0.7,6.4-3.2,7-6.2c0.3-1.4,1-2.8,1.7-4c1.1-2,2.3-3.8,1.4-5.7C454.6,223,452,224.8,449.1,227z
			 M447.7,100.5c-4.5,2-8.6,3.8-12.8,5.5c-3.4,1.3-6.9,2.7-10-1c-0.1,3.9,1.8,6,5.4,6.4C436.7,111.9,444.9,107,447.7,100.5z
			 M423.8,154.6c-2.3,2.5-2.4,5.2-1.5,7.9c0.2,0.7,1.4,1.4,2.1,1.4c3.2,0.1,4.7-1.9,5.4-6.4c3.8,0.6,5.2-0.6,4.7-4.3
			c-0.7,0.1-1.4,0.2-1.8,0.3c-1.5-1.9-2.8-3.6-4.2-5.4c-2.3,3.2-1.3,5.9,0.2,8.6c-1,0.7-1.8,1.3-2.8,1.9
			C425.1,157.1,424.5,156,423.8,154.6z M351.1,205.8c-1.7,0.8-2.5,1.5-3.4,1.6c-3.9,0.5-7.9,1-11.9,1.2c-2.3,0.1-4.8-0.1-4.9-3.7
			c-2,2.7-1.8,4.6,0.4,6.3c4.7,3.8,15.6,2.4,19-2.6C350.8,208,350.8,207,351.1,205.8z M403.3,231.4c-2.3,2-2.4,4.5-0.6,7.7
			c2.4,4.2,7.2,6.5,11.1,5.4c3.2-1,5.2-3.9,4.9-7.5c-2.7,2.4-5.4,4.6-9.1,2.5C406.5,237.5,403.6,235.6,403.3,231.4z M417.7,148.3
			c-0.7,0.7-1.1,1.1-1.4,1.5c-1.5,2-2.8,4-4.4,5.9c-0.4,0.5-1.3,0.9-1.9,0.8c-0.3,0-0.7-1-0.9-1.7c-0.2-1.1-0.2-2.2-0.4-3.7
			c-2.5,1.9-3.4,4.2-2.6,6.7c0.4,1.3,2,2.8,3.3,3.3c2.5,0.9,4.6-0.4,6.1-2.5C417.7,155.7,418.2,152.4,417.7,148.3z M399.2,221.4
			c-1.3,0.8-2.5,1.5-3.7,2.3c-5.7,3.3-7.4,3.1-11.6-1.9c0-0.1-0.2,0-0.2-0.1c-1.1,2.5-0.7,5.1,1.1,7c2,2.1,5.1,2.5,8.3,1.2
			C396.6,228.5,399.2,225.1,399.2,221.4z M418,173.2c-1.5,1.9-2.6,3.7-4.2,5.1c-3.3,3-5.8,2.5-7.6-1.4c-3.3,2.7-1,6.7,1.8,7.5
			c3.2,0.9,5.9,0.1,8.2-2.1C418.7,179.8,419.4,176.8,418,173.2z M453.9,98.5c1.4-7.3,6.2-13.5,5.3-21.3
			C453.5,82.2,448.9,93.1,453.9,98.5z M411.9,163.2c-0.3-0.2-0.6-0.4-0.9-0.6c-1.8,1.8-3.5,3.8-5.4,5.4c-0.8,0.7-2.1,1.2-3.1,1.1
			c-0.5,0-0.9-1.5-1.3-2.4c-0.1-0.3-0.1-0.8-0.1-1.1c-0.3-0.1-0.5-0.2-0.8-0.3c-0.6,1.3-1.7,2.8-1.5,4c0.2,1.5,1.3,3.2,2.5,4
			c2.7,1.8,6.5,0.5,8.1-2.8C410.6,168.3,411.1,165.7,411.9,163.2z M354.9,393.4c-7.1,4.3-11.7,13.3-9.4,18.4
			C349.5,406.1,354.6,401.3,354.9,393.4z M453.9,212c-5.4,4-10.1,1.3-14.8-0.9c-0.6,2.1-0.1,3.6,2.1,5.3c3,2.3,6.3,3.1,9.8,1.5
			C453.3,216.9,454.4,215,453.9,212z M311.6,174.7c-5.9,2.2-10,10.8-8.5,17.4C308.3,187.4,310,181.3,311.6,174.7z M478.7,55.5
			c2.2,7.3,9.1,13.3,14.4,12.7C489.5,62.7,485.7,57.7,478.7,55.5z M420,217.9c-2,2.2-2.1,4.1-0.6,6.1c1.7,2.3,5.5,3,8.4,1.7
			c2.9-1.4,4.2-3.9,3.5-6.9C424.3,222.8,422.3,222.7,420,217.9z M384.7,174.3c-3.4,2.5-4.1,6.7-1.9,9.8c1.5,2.1,4,2.8,6.1,1.7
			c2.1-1.1,3-3.5,2.2-6.1c-0.5,0.4-1,0.7-1.4,1c-2.2,1.6-2.9,1.4-3.8-1.2C385.2,177.9,385,176.2,384.7,174.3z M342.4,234.2
			c-1.6,1.4-1.6,3.2,0.6,4.8c2.9,2.2,6.2,2.8,9.7,2c1.4-0.3,2.8-1.1,4.2-1.6c-1.1-1-1.9-1.4-2.8-1.6c-2.7-0.7-5.5-1.2-8.2-2
			C344.8,235.6,343.8,234.9,342.4,234.2z M405.1,133c-1.8,0.7-2.5,2-2.3,3.8c0.2,2,1.5,3.2,3.4,3.6c4.6,1.1,9.2-3.9,8.2-9.2
			c-1.7,1.2-3.3,2.4-5,3.6C406.7,136.7,405.8,136.3,405.1,133z M428.3,163.1c-2.5,1.9-3,4.2-1.5,6.5c1.7,2.7,5.7,3.6,8.6,2
			c2.5-1.4,3.3-3.7,2.3-6C433.9,169,428.8,168.4,428.3,163.1z M481.1,81.5c0.2,6.4,6.6,12.4,12.7,12.1
			C491.1,88.1,486.6,84.5,481.1,81.5z M491.2,99.4c-1.8-5.4-8.4-11-13-11C479.6,94.1,486.1,99.6,491.2,99.4z M486.8,104.2
			c-2.5-6-7.9-8.4-12.9-11.5C473.7,98.7,479.7,103.9,486.8,104.2z M480.4,63.8c0.8,7,6,12.8,11.6,13.3
			C489.9,71.2,486.4,66.8,480.4,63.8z M477.2,103.9c-3.4-4.5-6.5-8.6-9.8-13.1c-1.4,4-0.7,7.5,2,10.4
			C471.4,103.4,473.7,104.8,477.2,103.9z M354,290.8c-3.6-7.2-9.2-10.3-13.9-7.7C344.4,286.2,347.6,290.9,354,290.8z M492.6,85.4
			c-2.2-4.8-5.3-8.6-10.2-10.8C481.7,80.4,487.1,86.1,492.6,85.4z M330.6,405.8c5.1,0.5,9.9-3.1,10.5-7.2c0.4-2.4-0.3-3.3-2-3.6
			C336.3,398.6,333.6,402,330.6,405.8z M428.3,188.5c-1.7,2.2-1.4,4.4,0.7,6.1c2.2,1.7,5.6,1.3,7-0.9c1.3-2,0.8-4.2-1.5-5.8
			C432.4,191.8,431.6,191.9,428.3,188.5z M342.9,227.9c-2.3-0.3-4.4-0.7-6.5-1c-2.2-0.3-4.3-0.5-6.5-0.7c0.2,2.9,2.1,4.7,5.6,5.4
			C338.8,232.2,341.6,230.9,342.9,227.9z M434.6,134.3c-2.5,0.9-3.5,2.9-2.6,5.6c0.9,2.7,3.4,4.3,5.9,3.6c2-0.5,2.8-2,2.2-4.5
			C436.9,140,436.6,139.8,434.6,134.3z M426,135.7c-5,1.7-4.1-3.3-6.1-5c-2.2,1.7-3,4.1-1.9,6.5c0.9,2,2.5,3.3,4.8,2.9
			C424.9,139.7,426,138.3,426,135.7z M446,190.2c-1.3,2.6-0.9,4.8,1.1,6.4c1.8,1.5,4.6,1.5,6.1,0.1c1.4-1.4,1.8-2.9,0.5-4.8
			C450.4,194.8,448.5,191.6,446,190.2z"/>
		<path class="st0" d="M0,501c1.3,0,2.6-0.1,3.8-0.1c119,0,238,0,357.1,0c1.7,0,3.3,0,5.7,0c-1-0.9-1.4-1.4-1.9-1.7c-6.5-4.1-13-8.5-19.7-12.3
			c-4.8-2.7-8.7-6.1-12-10.5c-2-2.7-4.4-5.1-6.7-7.6c4.6,0.8,7.5,4.7,11.1,7.7c0-0.6,0-0.9-0.1-1.2c0.1,0,0.3,0,0.4,0.1
			c1.8,2.5,4.5,3.3,7.3,3.7c9.3,1,15.9,5.8,18.7,14.7c1.9,6,5.2,7.5,11.4,7.4c38.7-0.3,77.4-0.2,116-0.2c1.1,0,2.2,0.1,3.3,0.1
			c0,10.2,0,20.4,0,30.7c-164.8,0-329.7,0-494.5,0C0,521.5,0,511.2,0,501z M83.7,517.6c-1.3-1.7-0.7-5.2-4.5-4.2
			c0-0.7,0.1-1.2,0-1.5c-0.3-0.6-0.8-1.2-1.2-1.8c-0.3,0.6-0.7,1.2-0.8,1.8c-0.2,0.8-0.1,1.7-0.1,2.1c-2,0-4-0.6-5.2,0.2
			c-1.3,0.8-1.8,2.9-2.6,4.5c-1.3-0.9-1.3-1.9-0.1-3.3c0.3-0.4,0.4-1.3,0.2-1.8c-0.4-0.6-1.1-1-2.1-1.8c-0.4,0.6-1.2,1.3-1.4,2.1
			c-0.2,1,0.4,2.1,0.3,3.2c-0.2,2.6,0.7,4,3.1,3.6c0.7,1,1.2,1.7,1.7,2.4c0.6-0.8,1.1-1.5,1.7-2.4c1.9-0.2,4-0.3,6.3-0.5
			c0.2-1.4,0.3-3.1,0.5-4.7c0.3,0,0.6-0.1,0.9-0.1c0.4,1,0.8,2,1.3,3.1c0.4,1.1,0.3,2.7,2.4,2C84,519.4,83.8,518.5,83.7,517.6
			c0.3,0.5,0.6,1.4,1.1,1.6c1.3,0.5,2.9,1.3,4,0.9c1-0.4,2.2-2.4,2-3.3c-0.3-1.3-1.8-2.8-3-3.1c-1-0.2-2.4,1.2-3.5,2.1
			C83.9,516.1,83.9,517,83.7,517.6z M44.7,515c-1.9-1.8-3.9-2.2-6.4-0.1c0-1.9,0-3.3,0-4.8c-3.1-0.3-1.5,2.2-2.3,3.3
			c-2.2-0.4-4.3,0.3-4.7,2.8c-0.2,1.2,0.7,3.1,1.7,3.8c1.9,1.4,3.7,0.3,4.6-0.8c1.9,0.5,3.4,1,5,1.1c0.4,0,1-1,1.4-1.5
			c-0.1-0.2-0.2-0.3-0.4-0.5c-0.7,0.1-1.3,0.2-2,0.2c-0.1-0.1-0.2-0.3-0.3-0.4C42.5,517.1,43.6,516,44.7,515
			c-0.1,2.5-0.3,5.1-0.4,7.7c0.3,0.2,0.6,0.3,0.9,0.5c0.6-0.8,1.2-1.6,1.5-2c2-0.9,3.6-1.6,5.3-2.4c2.9,2.9,5.5,2.2,7.1-2.1
			c0.7,0.5,1.3,0.9,1.8,1.3c-0.7,0.5-1.4,0.9-2,1.3c0.6,0.4,1.1,1,1.8,1.1c1.2,0.3,2.5-1.5,3.7,0c0.3-0.4,0.8-0.7,0.8-1.1
			c0.1-1.6,0.1-3.2,0.1-4.8c0-0.4-0.7-1.2-0.7-1.1c-2,0.9-4.9-1.4-6,2c-2.7-2.8-3.8-2.8-7.2-0.1C49,512.8,47.9,512.7,44.7,515z
			 M30,517c-0.3-5.6-3.9-9.4-9-9.4c-4.9,0-8.8,3.9-8.7,8.8c0.1,4.7,4.1,9,8.7,8.5c2.7-0.3,5.5-1.6,7.9-3.2
			C29.8,521,29.7,518.6,30,517z M103.6,515.8c0.6-0.3,1.2-0.7,1.9-1c-0.2-0.3-0.5-1-0.7-0.9c-1.3,0.1-2.6,0.4-4.3,0.6
			c-1.3-1.5-3.2-1.4-5.1,0c-0.9-1-1.6-1.9-2.8-3.3c-0.6,1.1-1.3,2-1.6,3.1c-0.2,0.8,0.4,1.8,0.4,2.7c0.2,3.5,0.2,3.5,3.9,2.8
			c0.2,0,0.4,0.1,0.7,0.2c3.6,1,4.3,0.7,5.9-2.7c0.6,0.3,1.2,0.7,1.9,1c-0.4,0.4-0.8,0.2-1,0.3c-0.4,0.4-0.8,0.9-1.1,1.4
			c1.1,0.1,2.4,0.5,3.2,0c0.5-0.3,0.6-1.9,0.4-2.8C105.1,516.6,104.1,516.2,103.6,515.8z M441.8,515.5c-1.9,0-3.4,0-5,0
			c0,1.1,0,2.3,0,3.5C437.9,517,442.3,519.2,441.8,515.5z M422.6,518.6c0.5-1,0.8-1.8,1.1-2.6c0.5,0.8,0.9,1.6,1.3,2.3
			c0.2-0.1,0.4-0.2,0.6-0.3c-0.5-1-1-2.1-1.7-3.3c-0.6,0.7-1,1.2-1.4,1.7c-0.3-0.4-0.6-0.8-1-1.3c-0.4,0.6-0.6,1.1-0.9,1.6
			c-0.4-0.6-0.8-1.1-1.4-2c-0.7,1.4-1.2,2.4-1.7,3.4c0.2,0.1,0.4,0.2,0.7,0.3c0.4-0.7,0.7-1.4,1.2-2.2c0.4,0.9,0.7,1.6,1.1,2.5
			c0.4-0.7,0.7-1.2,1-1.6C421.9,517.4,422.2,517.9,422.6,518.6z M384.6,515.9c-1-0.9-1.6-1.5-2.3-2.1c-0.5,0.8-1.3,1.6-1.3,2.3
			c0,0.7,0.9,1.5,1.4,2.2C383.1,517.7,383.7,517,384.6,515.9z M393.2,513.6c-0.4,0-0.8,0-1.1,0c-0.3,1.1-0.8,2.1-0.7,3.2
			c0,0.5,0.9,1,1.5,1.6c0.5-0.5,1.3-1,1.3-1.5C394,515.8,393.5,514.7,393.2,513.6z M352.8,519.3c2.4,0,2.7-0.5,2-4
			C352.2,515.2,352.2,515.2,352.8,519.3z M367,516.2c-1-0.8-1.6-1.4-2.2-1.9c-0.4,0.6-1.1,1.1-1.1,1.7c0,0.7,0.7,1.3,1.1,1.9
			C365.4,517.4,366,517,367,516.2z M390.1,513.7c-1.4,1.3-2.5,2.4-3.7,3.6c1.6,0.2,2.7,0.4,4,0.6
			C390.2,516.7,390.2,515.4,390.1,513.7z"/>
		<path class="st0" d="M0,270.1c0.3-1,0.6-2.1,0.9-3.1c2.6-10.8,7.8-14.7,18.9-14.3c-2.9-2.6-5.9-5.2-8.7-7.9c-7.5-7.2-9.3-15.9-6.2-25.7
			c2.8-9,9.6-12.2,18.3-12.7c0.8,0,1.6-0.1,2.9-0.2c-2-1.6-3.7-2.8-5.2-4.2c-6.6-5.8-8.2-12.1-4.9-20.2c2.9-7,6.3-13.8,12.6-18.6
			c6.3-4.7,13.2-5.5,20.5-2.6c-1.5-0.1-3-0.3-4.6-0.4c-7-0.4-12.7,2.3-17,7.7c-4.1,5.2-6.9,11.1-8.6,17.5c-1.2,4.3-0.1,8.1,3,11.2
			c5.7,5.8,12.8,9.5,20.5,11.6c12.4,3.4,25,5.9,37.3,9.3c14.3,4,28.5,8.4,42.8,12.8c1.6,0.5,3.1,1.3,4.5,2.3
			c-5.8-1.5-11.6-3.1-17.4-4.4c-19.8-4.3-39.6-8.5-59.4-12.9c-4.7-1-9.4-2.5-13.9-4.2c-6.7-2.5-13.4-2.1-19.9,0.2
			c-6.6,2.4-8.1,8.4-8.6,14.5c-0.6,7.8,3.4,13.7,9.1,18.4c11.5,9.3,25.2,13.2,39.4,15.6c19.8,3.3,39.7,2.7,59.7,3.2
			c8.7,0.2,17.4,0,25.8,0c-0.9-2.2-1.9-4.7-3.3-8.2c-1.9-0.6-4.8-1.9-7.9-2.6c-21.1-5-42.3-9.8-63.4-14.9c-9.6-2.3-19-5.1-28.5-7.7
			c0.1-0.3,0.1-0.7,0.2-1c2.3,0.4,4.7,0.7,7,1.1c17.5,3.2,35,6.2,52.4,9.8c11.7,2.4,23.2,6.1,34.2,11.1c2.5,1.1,4.8,2.5,7.2,3.7
			c2.4-1.3,4.8-2.6,7.1-3.9c-2.4-1.2-5.1-2.6-7.8-3.9c-7.9-3.9-7.8-10.1-4.5-15.9c1-1.8,2.5-3.4,3.9-5.4
			c-31.4-10.2-61.3-24.1-91.4-37.6c3,0.7,6.1,1.3,9.1,2.1c22,6.2,42.9,15.3,63.6,25.1c6.1,2.9,12.1,6.1,18.3,9.1
			c0.6,0.3,1.8,0.4,2.2,0.1c5.3-4,11.2-4.7,18.2-2.8c-3.3-3-5.6-5.7-5.8-9.7c-0.2-3.8,1.4-7,3.6-9.9c5.8-7.6,9.8-8.3,21.6-3.8
			c-1.2-3-2.6-6.1-3.5-9.3c-1.3-4.9-0.7-9.6,3.3-13.1c4.2-3.6,9.1-4.9,14.5-3c7.5,2.7,13,7.9,17.8,14.1c-0.8-0.5-1.6-1.1-2.5-1.6
			c-5.1-2.7-10.1-5.7-15.3-8.1c-1.9-0.9-4.6-0.8-6.7-0.3c-5.6,1.3-7.9,5.2-6.8,10.9c1.6,7.9,5.9,14.4,11.4,20.2
			c0.7,0.7,1.5,1.4,1.9,2.6c-2.8-1.5-5.5-3.2-8.3-4.6c-4-2-8-4.1-12.2-5.7c-3.7-1.5-7.1-0.4-9.9,2.6c-6.6,6.9-6.5,12.1,0.7,18.4
			c1.8,1.6,3.8,3.2,5.8,4.9c-4-0.7-7.8-1.5-11.6-2c-7.6-1-14.6,2.9-18.1,9.8c-2.1,4.1-1.6,6.3,2.1,9c3,2.1,6,4.2,9.1,6.1
			c1.6,1,3.5,1.5,5.4,2.3c-1.4,0.5-2.9,0.9-4.4,1.5c-1.6,0.7-3.3,1.4-4.8,2.4c-2.2,1.4-2.3,2.6-0.2,4.1c1.7,1.2,3.7,2.4,5.7,2.6
			c5.1,0.6,10.3,0.6,15.4,0.9c0-0.2,0-0.4,0-0.7c0.6,0.9,1.2,1.9,1.9,3c-2.4-0.2-4.6,0.2-5.2,2.9c-0.6,2.8,0.6,4.9,2.7,6.4
			c2.2,1.5,4.7,2.8,7,4.2c0.8,0.5,1.6,1.1,2.3,1.8c-4.3,0.3-8.4,0-12-2.2c-4.2-2.5-5.5-6.4-4-11.6c-2.8,0-5.9,0.7-8.5-0.1
			c-9.9-3.3-19.9-0.6-29.8-0.5c-19.2,0.3-38.3,1.5-57.5-0.3c-13.2-1.3-25.8-4.8-38.1-9.9c-11.2-4.7-20-0.2-21.8,12.9
			c-2,14.7,4.5,24.9,18.8,30.7c12.4,5,25.3,6.4,38.4,4.8c17.6-2.1,35.1-4.9,52.6-7.1c14.9-1.9,29.9-3.6,44.9-5.3
			c2.9-0.3,5.9-0.7,8.9-0.5c-7.2,1.4-14.3,2.9-21.5,4.1c-24.1,4.1-48.1,8.3-72.3,12c-8.6,1.3-17.4,1.5-26.2,2.1
			c-4.7,0.3-8.9,2.3-12.8,4.7c-7.2,4.3-12.8,10.1-15.4,18.3c-1.6,5.1-0.4,9.5,3.6,12.9c8,6.9,17.1,9.3,27.3,5.8
			c20.7-7,41.4-14.1,62-21.3c16.3-5.7,32.5-11.7,48.9-17.2c-2.7,1.3-5.3,2.6-8,3.9c-32.7,14.8-65.9,28.2-100.1,38.8
			c-10.3,3.2-19.8,2.2-28.8-3.7c-9.6-6.4-11.7-15.2-5.6-25.1c5.2-8.5,12.9-13.6,22.3-16.4c0.8-0.2,1.6-0.5,3-0.9
			c-8.7-1-16.6-2.8-24-6.2C13,299.7,7,295.6,3.5,288.8c-1.6-2.9-2.3-6.3-3.5-9.5C0,276.3,0,273.2,0,270.1z"/>
		<path class="st0" d="M494.5,22.4c-1.3,2.7-2.7,5.5-4,8.2c-0.7,1.5-1.4,2.9-2.1,4.4c-1.7,3.8-4.4,5.3-8.8,4.7c-7.2-1-13.8,1-19.5,5.7
			c-0.4,0.3-0.8,0.6-1.3,0.7c2.5-4.7,6.3-7.9,11.4-9.4c3.3-0.9,6.8-1.3,10.3-1.5c1.7-0.1,2.7-0.5,3.4-2c0.9-2,1.9-4,3.1-6.5
			c-5.6,0.5-10.8-0.1-15.1,4c-2.4,2.3-5.4,3.9-8.3,5.8c-0.2-6.3,5-16.7,9.9-19.9c3.9-2.6,7.5-1.9,9.7,1.6c-2.1,0.1-4.3,0.3-6.4,0.5
			c0,0.3,0.1,0.6,0.1,0.9c1.3-0.4,2.6-0.7,4.8-1.3c-1.3,2.1-2.2,3.5-3.1,4.9c5.3-0.5,10.6-0.9,15.9-1.4
			C494.5,22,494.5,22.2,494.5,22.4z"/>
		<path class="st0" d="M253.9,395.7c-3.8,0.8-5.3-0.6-4.5-3.8c0.2-0.8,0.5-1.6,0.9-2.4c0.4-0.8,0.8-1.5,1.2-2.2c-8.1-3.6-9.9-7.2-6.8-12.8
			c-1.1-2.6-2.1-4.9-3.1-7.3c-2.2-0.9-4.8-1.9-7.6-3.1c-5.6,6.1-13.2,9.8-22,11.1c-0.6,0.1-1.4,0.2-1.6,0.6c-1.4,3-2.7,6.1-4,9.2
			c0.3,0.3,0.6,0.6,0.9,0.8c3.7-2.3,7.5-4.6,11.2-6.9c0.2,0.1,0.4,0.2,0.6,0.3c-1,1.8-1.9,3.8-3.1,5.5c-4.4,6.2-8.9,12.4-12.9,19
			c9.5-5.8,17.8-13.1,26.5-19.8c-0.7,1.1-1.3,2.2-2,3.4c0.1,0.1,0.2,0.2,0.3,0.3c3.2-2.5,6.4-4.9,9.7-7.4c0.1,0.1,0.2,0.3,0.3,0.4
			c-3.1,3-6.1,6.1-9.2,9c-9.3,8.9-18.8,17.6-28,26.5c-4.9,4.8-7.7,11.1-10.3,18.3c2.4-0.5,4.2-0.6,5.8-1.2
			c12.5-5.3,24.1-11.9,33.4-22c4.6-5,9.5-9.8,14.3-14.6c0.9-0.9,1.8-1.7,2.7-2.5c0.2,0.2,0.3,0.3,0.5,0.5
			c-7.4,8.8-14.7,17.8-22.4,26.3c-3.2,3.4-7.4,6.1-11.5,8.4c-5.7,3.2-9.6,7.8-12.9,13.1c-2.1,3.4-3.7,7-5.5,10.4
			c0.2,0.2,0.5,0.4,0.7,0.6c2.6-1.5,5.3-2.8,7.9-4.4c5.2-3.2,10.2-6.5,15.4-9.6c6.6-4,11-10.4,16.5-15.5
			c9.3-8.6,18.6-17.3,27.9-25.9c1-1,1.8-2.2,2.8-3.3c3.8-4,7.2-8.5,11.5-11.8c15.5-11.7,29.3-25.2,42.3-39.5
			c8.6-9.4,18-18.1,27-27.2c1.1-1.1,2.4-2.2,3.5-3.3c5.7-5.8,9-12.2,5.5-20.5c3.2,4.3,4,9.1,1.9,13.8c-1.7,3.8-4.1,7.5-6.9,10.6
			c-11.4,12.6-23,25.1-34.7,37.5c-10.2,10.9-21.5,20.6-34.1,28.7c-4.8,3.1-9.7,6.3-13.5,10.4c-12.3,13-24.1,26.3-36,39.6
			c-11,12.3-25.1,19.9-40,26.1c-0.8,0.3-1.6,0.4-2.7,0.7c0.2-9.1,5-15.9,10.6-23c-1.3,0.4-1.9,0.6-2.6,0.7c-1.8,0.4-3.6,1-5.5,1.1
			c-4.7,0.2-7.3-3-5.8-7.4c2.3-6.6,5.6-12.7,10.5-17.9c1-1,2-2.1,3-3.1c-3-2.7-3.5-4.2-1.3-8c2.4-4.2,5.4-8,8.2-12.1
			c-0.3-0.1-0.9-0.1-1.5-0.3c-3-0.9-4.3-3.7-3.2-7c0.5-1.4,1.3-2.8,2.1-4.1c0.8-1.3,1.8-2.5,2.5-3.5c-1.1-1.4-2.8-2.6-3.1-4.1
			c-0.4-2,0.3-4.1,0.5-6.2c0.2-1.8,0.2-3.6,0.5-5.4c0.4-2.1,1-4.2,1.6-6.5c-2.5-2.3-6.5-4.4-4.8-9.2c-1.7-2.8-4-2.8-6.7-2
			c-0.7,0.2-1.5,0.1-2.3,0.1c-6,0-8.3-3.5-5.6-8.8c1-2,2.4-3.7,3.6-5.6c0.4-0.5,0.8-1,1.8-1.3c-0.7,2.6-1.5,5.1-2.2,7.7
			c-0.8,3.2-0.6,3.7,2.8,3.2c8.1-1.2,16.2-2.9,23.7-7c-1.6,3.6-3.4,4.8-13.3,9.8c3.1,0.5,8.4-1.5,18.2-6.7c-0.1,5.6-9.2,11-18.9,11
			c0.3,0.7,0.4,1.3,0.7,1.8c2.7,3.4,8,4.7,11.8,2.6c2.1-1.2,4-2.9,5.9-4.4c1.8-1.4,3.5-2.8,5.7-4.6c-2.9,10.4-9.6,15.3-19.1,14.4
			c-0.1,1-0.3,2-0.3,2.9c0,3.1,1.3,3.9,4,2.6c6.4-3.3,12.8-6.7,19.2-10.1c1.1-0.6,2.2-1.1,3.7-1.9c-3.2,7-20.1,19-27.3,16.3
			c-0.1,0.2-0.3,0.4-0.4,0.6c0.8,0.4,1.7,0.8,2.7,1.3c-0.1,0.6-0.2,1.3-0.3,2.1c2.9,1.4,5.7,2.1,8.9,0.7c3.5-1.6,7.1-2.8,10.6-4.3
			c2.9-1.3,5.9-2.5,7.1-6c0.4-1.2,1.7-2,2.9-2.7c-0.7,1.3-1.5,2.6-1.9,4c-0.8,2.4,0.1,3.8,2.6,3.6c2.7-0.2,5.4-1,8.5-1.5
			c0.3,0.7,0.8,1.7,1.2,2.7c-0.1,0.3-0.2,0.4-0.3,0.6c-0.7,1.1-2.1,2.4-1.9,3.4c0.3,1.9,2.3,1.7,3.8,1.6c3.3-0.2,6.6-0.4,10.1-0.2
			c-2,1-3.9,2.1-5.9,3.1c-1.3,0.7-2.6,1.3-3.8,2c-1.6,1-3.5,2-2.8,4.3c0.6,2.2,2.5,3.2,4.7,3.4c1.3,0.1,2.7-0.3,4.3-0.5
			c0.4,0.7,1,1.6,1.3,2.2c-2.4,2.4-4.7,4.4-6.7,6.8C249.9,393.9,250.4,394.8,253.9,395.7z"/>
		<path class="st0" d="M162.5,188c-3.5-2.4-7.2-4.7-10.8-7.4c-24.6-18.5-47-39.3-68.2-61.6c-9.7-10.2-8.4-22.8,2.5-31.5
			c10.3-8.2,21.6-11,34.1-5.2c0.1,0.1,0.3,0,0.7,0c-1.4-2.9-2.7-5.7-3.9-8.5c-0.8-1.8-1.3-3.7-1.9-5.6c-1.4-5-0.4-9.6,2.9-13.6
			c5.4-6.5,12-11,20.4-12.5c6.1-1.1,11.1,0.6,15,5.4c0.4,0.5,0.7,1,1.4,1.1c-0.9-3.7-1.9-7.3-2.7-11c-1-4.8,0-9.3,3.1-13.2
			c5-6.4,11.2-11.2,18.8-14c11.2-4.2,22.1,0,27.3,10.8c2.6,5.3,4.3,11,6.4,16.6c0.2-0.2,0.6-0.7,1-1.2c3.4-4.3,8.1-5.3,12.6-2.1
			c2.2,1.5,4.2,3.5,5.7,5.7c5.2,7.7,9,16.2,10.9,25.4c0.3,1.4,0.3,2.8,0.3,4.3c-1.1-3.3-2.1-6.6-3.5-9.7c-1.4-3.3-3-6.5-4.8-9.6
			c-1.7-2.9-3.5-5.8-5.6-8.5c-1.3-1.7-3-3.3-4.9-4.4c-3.5-2.2-7.4-0.8-8.1,3.3c-0.6,3.9-0.7,8.2,0.2,12.1
			c2.5,10.1,5.5,20.2,8.5,30.1c6.6,21.5,13.3,43,20,64.5c0.3,1,0.5,1.9,0.3,3.1c-0.9-2.2-1.9-4.4-2.8-6.6
			c-11-27.3-21.3-54.8-29.2-83.2c-1.8-6.4-3.2-12.9-1.9-19.6c0.1-0.6,0.1-1.2-0.1-1.8c-2.5-6-4.4-12.2-7.6-17.8
			c-5.6-9.8-15.7-12.3-25.8-6.7c-4.2,2.4-8,5.7-11.7,8.9c-4.9,4.2-6.1,9.7-4,15.8c2.4,6.5,5.1,13,7.6,19.5c5,13.1,9.9,26.2,15,39.3
			c7.1,18.3,14.4,36.5,21.7,54.7c1.2,3.1,2.9,6,4.4,9.1c-0.2,0.1-0.4,0.2-0.6,0.3c-2.8-5.1-6-10-8.4-15.3
			c-6.6-14.5-13.2-29.1-19.4-43.8c-6.3-14.9-12.1-29.9-18-45c-2-5.1-5.5-8.7-9.6-12c-3.3-2.6-7.3-2.7-11.2-1.7
			c-7.6,2.1-13.6,6.6-18.1,13c-2,2.8-2.5,6-1.2,9c3.2,7.2,6.3,14.5,10.3,21.3c6.4,10.7,13.4,21.1,20.4,31.5
			c7.4,11,15.1,21.8,22.6,32.9c-0.8-0.8-1.7-1.6-2.5-2.4c-6.6-7.9-13.4-15.6-19.5-23.9c-8.8-11.9-17.1-24.2-25.6-36.3
			c-0.1-0.1-0.2-0.3-0.3-0.4c-1.8-6.2-6.9-7.6-12.3-8c-12.4-0.9-22,4.3-28.9,14.4c-4,5.9-3.4,12.7,1.7,17.8
			c11,11.4,22.1,22.7,33.6,33.6C133.3,161.3,148,174.6,162.5,188z"/>
		<path class="st0" d="M217,280.3c-4.1,3.4-8.3,6.7-12.4,10.2c-7,6-14.2,11.9-20.9,18.3c-4,3.8-7.3,8.5-10.7,12.9c-0.9,1.1-1.2,2.7-2.2,4.8
			c2.5-0.2,4.3,0,5.8-0.6c8.4-2.9,16.7-6,25-8.9c1-0.4,2-0.7,3.1-0.7c-9.1,5.9-18.1,11.8-28.7,14.6c-0.7,0.2-1.5,0.2-2.3,0.3
			c-2.5,0.2-4.9-0.1-6.3-2.4c-1.4-2.2-0.9-4.5,0.2-6.8c2.9-6.3,7.9-10.7,12.8-15.2c0.5-0.5,1-0.9,1.3-1.7c-1.6,0.5-3.3,1-4.9,1.5
			c-2.4,0.8-4.6,0.6-6.4-1.2c-1.8-1.9-1.6-4.3-0.2-6.1c2.8-3.7,5.8-7.3,8.9-10.7c1.7-1.8,3.8-3.3,5.8-5.1c-1.9-0.3-3.6-0.6-5.3-0.9
			c0.4-8.7,4.4-15.2,11.3-20.1c7-5,15-7.7,23.1-10c7.4-2.1,14.4-4.6,20.3-9.6c0.3-0.3,0.7-0.4,1-0.6c0.2,0.2,0.3,0.3,0.5,0.5
			c-1.4,1.3-2.9,2.6-4.3,4c-3.5,3.6-7.2,7-10.4,10.8c-1.7,2-3,4.5-4,7c-1,2.6,0,3.9,2.8,3.4c4.1-0.8,8.1-2.1,12.1-2.9
			c8.1-1.7,16.3-3.3,24.4-5c0.1,0.3,0.2,0.6,0.2,0.9c-4.8,1.9-9.5,4-14.3,5.6c-11.1,3.8-18.7,11.9-25.6,20.7c-2.4,3-1.6,4.5,2.2,4.9
			c0.5,0.1,1,0.1,1.5,0.2c-0.1,0.2-0.2,0.5-0.2,0.5c-4.8-0.4-7.2,2.9-9.3,6.3c-1.5,2.3-2.7,4.9-3.6,7.5c-0.8,2.3,0.3,3.6,2.7,3.3
			c5.8-0.6,11.6-1.5,17.5-2.2c0.7-0.1,1.5-0.2,2.3-0.3c0,0.3,0,0.5-0.1,0.6c-6.1,3.9-12.7,6.5-20.1,6.7c-5.3,0.1-8.2-3.6-6.7-8.8
			c1.9-6.5,6.5-10.3,12.6-13c-2.3-1.6-2.3-3.8-1.2-6c1.2-2.4,2.7-4.7,4.1-7c2.1-2.5,4.3-5,6.6-7.8c-5.6,0.3-11.8,2.1-12.9-6.7
			c-3.1,2.1-5.8,3.9-8.5,5.8c0.1,0.2,0.2,0.3,0.3,0.5c1.2-0.3,2.3-0.6,3.6-0.9c-12.7,8.6-24.5,18-33.1,30.9c2.2-0.1,4.2-0.5,5.9-1.4
			c8-4.3,16-8.7,23.9-13.1C208.5,284.8,212.7,282.6,217,280.3z M219.2,253.1c-7.1,3.4-14.6,6.6-21.7,10.6c-3.5,2-6.5,5.1-9.4,8.1
			c-1.6,1.7-2.3,4.1-3.4,6.2c0.2,0.2,0.5,0.4,0.7,0.6c1.5-0.5,3.1-0.9,4.4-1.6c2.9-1.6,5.7-3.4,8.5-5.1c4.2-2.6,8.2-5.5,13.2-6.4
			c0.4-0.1,0.8-0.5,1.1-0.9C214.8,260.8,216.9,257,219.2,253.1z"/>
		<path class="st0" d="M306.7,156.3c-0.8-15.2-2.1-30.2-8.7-44.1c-0.4,0-0.8,0-1.2-0.1c-0.8,1.8-1.9,3.6-2.3,5.5c-2.3,11.2-4.7,22.4-6.6,33.7
			c-1.4,8.3-2.2,16.6-3.8,25c-0.1-4.9-0.4-9.7-0.3-14.6c0.4-14.1,1.6-28.2,5.1-42c0.8-3.3,2.4-6.3,3.6-9.5c0.3-0.8,0.6-1.8,0.6-2.7
			c0-5.7-1.2-11.1-3.4-16.4c-0.5-1.2-1.2-2.4-2-3.5c-3.7-5.2-8.7-4.9-10.7,1c-2.8,7.9-5.1,16-6.8,24.2c-2,10.2-0.8,20.5-0.4,30.8
			c0.2,6.1,0,12.2,0,18.3c-2-14.8-5.5-29.4-4.8-44.5c0.5-10.8,3.8-20.8,7.8-30.7c0.3-0.8,0.8-1.5,1.3-2.2c4.2-6,11.2-6.2,15.5-0.3
			c2.7,3.6,4.1,7.9,4.4,12.3c0.3,3.8,0.1,7.6,0.1,11.5c4.8-1.4,7.3-0.5,9.1,4.3c1.7,4.7,3,9.7,3.9,14.7c1.5,8.7,1.8,17.4,0.4,26.2
			C307.2,154.3,307,155.3,306.7,156.3z"/>
		<path class="st0" style="st0" d="M469.1,235.5c0.4,3,1.1,6,1.3,9c0.9,18.3-1.7,36-8.8,53.1c-4.5,11-10.7,20.7-18.2,29.6c-14.9,17.9-30.7,35-48.7,49.8
			c-10.8,8.9-22.9,16.3-34.4,24.3c-2,1.4-4,2.7-6,4.1c-0.1-0.2-0.3-0.3-0.4-0.5c5.1-4.1,10.1-8.4,15.4-12.3
			c30.2-22,55.4-49.1,78.1-78.5c11.3-14.7,17.5-32.2,19.9-50.7c1-7.8,1.1-15.8,1.6-23.6c0.1-1.4-0.2-2.8-0.4-4.3
			C468.7,235.5,468.9,235.5,469.1,235.5z"/>
		<path class="st0" d="M417.5,55c-7.5,9.6-10.2,20.9-11.4,32.5c-1,10-1.7,20-1.5,30c0.2,10-2.7,18.6-8.3,26.7c-11.4,16.2-24,31.2-39.3,43.7
			c-6.7,5.5-14.6,9.4-21.9,14c-5.2,3.3-10.5,6.7-15.7,10.1c-0.8,0.5-1.5,1.3-2.6,2.2c2,0.9,3.6,1.7,5.2,2.5
			c-0.1,0.2-0.1,0.3-0.2,0.5c-2.2-0.8-4.3-1.6-7.2-2.7c2.2-2.2,3.7-4,5.6-5.3c5.2-3.9,10.4-8.1,16-11.4c15.4-8.9,27.8-21,39-34.5
			c6.7-8.1,12.9-16.7,19.2-25.1c4.3-5.8,5.9-12.4,5.9-19.6c0.1-14.3,1.2-28.5,5.2-42.4C407.9,68.3,411.2,60.8,417.5,55z"/>
		<path class="st0" d="M162.1,338.7c-12.1,6.9-24.2,13.9-36.4,20.7c-18,10-36.1,19.8-54.2,29.6c-6.7,3.6-13.9,5.5-21.6,4.9
			c-8.9-0.7-12.6-4.4-13.3-13.3c-0.7-8.6,3.8-16.8,11.1-19.8c1.1-0.4,2.2-0.6,3.4-0.7c-4.8,2-8.4,5.1-10.3,10
			c-1.8,4.5-1.8,9.1-0.6,13.8c1,3.7,3.8,5.3,7.3,5.8c6.3,0.9,12.3-0.1,17.9-2.9c10.2-5.2,20.2-11,30.4-16.3
			c11.3-5.8,22.8-11.4,34.2-17.1c9.9-4.9,19.8-9.7,29.8-14.5c0.7-0.3,1.4-0.6,2-0.9C161.8,338.2,162,338.4,162.1,338.7z"/>
		<path class="st0" d="M435.7,41.2c4.6,0,7.1,2.3,7.5,7.1c0.4,4.6-3,8.6-7.7,9.3c-2.9,0.4-4.3,0-7.4-2.3c-1.4,4.3-2.7,8.4-4.2,12.6
			c-0.2,0.5-0.9,0.8-1.4,1.2c-1.4,0.9-3.1,1.5-4.1,2.7c-5.4,6-7.7,13.2-7.1,21.2c0.2,3.4,1.9,6.1,4.5,8.3c-3.3-0.3-5.6-2.1-7.2-5
			c-5.7-10.5,2.1-27.6,12.6-28.8c0.2,0,0.3-0.2,0.5-0.3c-0.7-4.3-1.8-8.6-2-13c-0.2-4.7,0-9.5,0.8-14.2c1.3-6.7,11-11.2,17.4-8.4
			c0.2,0.1,0.3,0.1,0.4,0.3c0.8,0.9,1.7,1.8,2.2,3.1c-1.6-2.1-3.8-2.4-6-1.8c-2.4,0.7-4.9,1.5-7,2.9c-1.4,0.9-2.7,2.8-2.9,4.4
			c-0.6,3.9-0.6,7.8-0.5,11.9c3.8-7.7,7-15.6,17.6-14.5C439.9,39,437.8,40.2,435.7,41.2c-0.9,0.7-1.8,1.5-3.2,2.5
			c2.4,0.6,4,0.9,5.6,1.3c-0.4-1.1-1.2-1.8-1.9-2.6C436,42.1,435.9,41.6,435.7,41.2z"/>
		<path class="st0" d="M78,121.5c-11.4-3-19.7,2.7-27.4,9.6c-5.5,4.9-6.1,10.6-2.4,17c3.2,5.4,7.6,9.6,12.9,12.9c16.7,10.3,33.4,20.4,50,30.7
			c8.3,5.1,16.6,10.4,24.8,15.6c-0.1,0.2-0.2,0.4-0.3,0.6c-1.9-1-3.8-2-5.8-2.9c-22.4-11.3-44.7-22.9-65.9-36.3
			c-6.5-4.1-13-8.2-17.3-14.9c-1.7-2.7-3.2-5.6-4.2-8.6c-1.5-4.4-0.8-9,2.2-12.5c7.1-8.3,15.9-13.5,27.2-13.1c2,0.1,4.1,0.9,6.1,1.4
			C78,121,78,121.3,78,121.5z"/>
		<path class="st1" d="M217,280.3c-4.2,2.3-8.5,4.5-12.7,6.8c-8,4.4-15.9,8.8-23.9,13.1c-1.7,0.9-3.8,1.3-5.9,1.4
			c8.6-12.9,20.4-22.3,33.1-30.9c-1.2,0.3-2.4,0.6-3.6,0.9c-0.1-0.2-0.2-0.3-0.3-0.5c2.7-1.8,5.4-3.7,8.5-5.8
			c1.1,8.9,7.2,7,12.9,6.7c-2.4,2.8-4.5,5.3-6.6,7.8C217.9,280,217.4,280.1,217,280.3z"/>
		<path class="st0" d="M268,84.8c-0.5-3.8-0.8-7.5-1.6-11.2c-0.8-3.6-1.7-7.3-3.2-10.7c-2.6-5.8-8-6.5-12.3-1.7c-4.5,5-6.1,11.3-7.4,17.7
			c-1.6,8.2-0.5,16.5,0.2,24.7c1.1,12.8,2.5,25.6,3.9,38.3c0.4,4.1,1.2,8.2,1.8,12.4c0.1,0.7,0.2,1.5,0.3,2.2
			c-0.2,0.1-0.4,0.1-0.7,0.2c-1.1-4.1-2.4-8.1-3.3-12.2c-4-18.1-6.7-36.5-7.7-55c-0.5-10,1.8-19.5,7.3-27.9c1.4-2.1,3.4-4.1,5.6-5.5
			c5.1-3.3,11-1.7,14,3.6c2.4,4.2,3.1,8.8,3.4,13.5c0.3,3.9,0.1,7.8,0.1,11.7C268.3,84.7,268.1,84.8,268,84.8z"/>
		<path class="st0" d="M256.4,177.3c6.3-3,12.1-1.5,17.3,2c4.6,3.2,7.8,7.8,8.9,13.5c0.8,4.3-0.6,8-3.8,11.8c4.1-12.5-8.2-25-18.8-26.7
			c-2.8-0.4-3.2-0.2-3.7,2.5c-0.2,1.2-0.8,2.3-1.5,3.4c0.7-4.5-1.4-7.8-4-10.8c-2.5-3-5.3-5.9-9.3-6.9c-4-1-7.7,0.2-9.9,3.7
			c-2,3.1-3.3,6.7-4.9,10c-0.3,0.8-0.5,1.6-1,2.5c0.2-4.2-3.6-5-5.8-7.1c-2.3-2.2-5.1-3.7-8.5-3.6c-3.1,0.1-5.9,0.9-7.2,4.4
			c-1.2-2.6-0.7-4.7,1.5-6.6c4.6-4,12.1-2.9,16,2.4c1.2,1.6,2.1,3.4,3.2,5.4c0.5-2.1,0.8-4.1,1.4-5.9c3.4-10.4,14.2-13.3,22.4-6.2
			C252.6,168.3,255.2,172.3,256.4,177.3z"/>
		<path class="st0" d="M299.5,351.8c-1.9,3.2-3.8,6.4-6.1,10.2c5.5-4.6,10.4-8.8,15.3-13c0.2,0.2,0.4,0.4,0.6,0.6c-3.4,4.2-6.7,8.4-10.2,12.6
			c-6.2,7.4-13.8,13.4-21.5,19.2c-1.9,1.4-4.2,2.5-6.4,2.9c-1.6,0.3-3.9-0.5-4.9-1.7c-0.9-1-1-3.4-0.5-4.9c0.8-2.2,2.3-4.1,3.7-6.2
			c-2.7-2.7-2.3-6-0.9-9.3c2-4.5,5-8.2,9.6-10.6c-0.3,0.4-0.6,0.8-0.8,1.3c-1.9,3.9-3.9,7.7-5.4,11.7c-1,2.8,0.2,3.8,3.1,3.3
			c4.6-0.7,8.5-3,12-5.9c3.6-2.9,7-6.2,10.5-9.4c0.5-0.4,0.9-0.9,1.4-1.3C299.1,351.5,299.3,351.7,299.5,351.8z M284,370.1
			c-4.5,1.9-8.9,3.5-13.8,2c-0.5,1.2-1.2,2.2-1.4,3.4c-0.3,1.6-0.2,3.3-0.3,5c1.6-0.4,3.6-0.5,4.8-1.4
			C277,376.3,280.5,373.2,284,370.1z"/>
		<path class="st0" d="M308.4,266.6c-2.3,0-4,0-5.9,0c-0.1,2.9,2.1,3.1,3.8,3.4c2.2,0.4,3.1,1.5,4.5,3.3c1.5,2,4.8,3.1,7.5,3.7
			c1.8,0.4,4-0.7,5.9-1.5c1-0.4,1.9-1.3,3.2-2.4c-0.2,2.1-0.4,3.7-0.5,5.3c-0.2,3.4,0.9,4.5,4,3.3c4.1-1.7,8-4,12-6
			c0.7-0.3,1.3-0.7,2.1-0.9c-4.2,4-8.4,8-14.1,9.9c-3.6,1.2-5.5,0.2-7.7-4c-5,1.5-9.8,0.2-14.1-2.5c-2.9-1.8-5.4-3.9-8.5-5.5
			c-3.7-1.9-3.9-6.8-1.1-9.9c0.4-0.5,0.9-1.1,0.9-1.7c0.3-3,2-5,4.5-6c3.2-1.2,6.6-1.9,10-2.9c0.7-0.2,1.8-0.5,2-1
			c1.4-3.1,4-4.3,7-4.7c0.5-0.1,1.2-0.3,1.5-0.7c2.3-3.2,5.1-4.4,8.7-3c2.5,1,4.8,2.6,7,4.3c-4.2-1.6-8.2-4.3-13.3-1
			c2.6,1.9,4.8,3.5,7.1,5.2c-0.1,0.1-0.1,0.2-0.2,0.3c-2.3-0.5-4.6-1.2-6.9-1.6c-1.2-0.2-2.6-0.2-3.8,0.1c-3.1,0.7-3.7,1.8-3.1,4.9
			c0.1,0.6,0.2,1.3,0.3,2.3c-4.3-1.4-8.2-0.7-12.1,0.8c-4.4,1.8-4.7,2.7-2,6.5C307.5,265.1,307.8,265.6,308.4,266.6z"/>
		<path class="st0" d="M43.3,279.8c39.9-9.4,100.5-8.5,117.7-2C122,276.3,82.6,278.1,43.3,279.8z"/>
		<path class="st0" d="M224.2,160c-2.1-3.9-4.4-7.6-6.3-11.6c-10.5-22.1-18.4-45.2-25.6-68.5c-2.6-8.3-4.9-16.6-7-25
			C201.4,88.8,211.9,124.7,224.2,160z"/>
		<path class="st0" d="M378.9,469.8c-5.4,1.6-10.7,1.6-15.8-0.4c-5.9-2.3-12-3.9-18.6-3.3c0.5-0.3,1-0.6,1.6-1c-0.5-0.1-0.7-0.2-0.9-0.3
			c-3.3-0.7-6.7-1.4-10-2c-4.4-0.9-7.4-3.6-9.7-7.3c-5.8-9.5-9-19.9-11.5-30.6c-0.2-0.9-0.4-1.8-0.5-2.7c0-0.2,0-0.5,0.1-1.3
			c0.6,1.4,1,2.2,1.4,3.1c3.6,8,7.3,15.9,10.8,23.9c3.3,7.5,9.1,11.2,17.2,11.9c5.6,0.5,11.1,1.4,16.7,2.5c3.2,0.6,6.5,1.5,9.5,2.7
			C372.5,466.2,375.6,468.1,378.9,469.8z"/>
		<path class="st0" d="M194,161c-18.5-27.8-34.4-57.1-50.2-86.6C151.8,79.1,189.5,143.9,194,161z"/>
		<path class="st0" d="M321.6,201.5c-8.5,1.7-17,3.4-25.5,4.9c-23.4,4.2-43.4,14.7-59.8,31.8c-0.2,0.2-0.5,0.4-0.8,0.6c-0.2-0.1-0.3-0.3-0.5-0.4
			c2.4-3.1,4.6-6.4,7.2-9.3c12.6-13.9,28.1-22.7,46.8-25.4c9.1-1.3,18.3-2,27.4-2.9c1.7-0.2,3.5,0,5.2,0
			C321.6,201.1,321.6,201.3,321.6,201.5z"/>
		<path class="st0" d="M243.4,151.8c-1.3-3.7-2.6-6.8-3.6-10c-4.7-15.9-7.5-32.3-9.7-48.7c-1.3-9.8-2.4-19.6-3.1-29.5c0.4,0.9,0.9,1.8,1.1,2.8
			c3.1,13.9,6.5,27.8,9.1,41.8c2.6,14.1,4.5,28.4,6.7,42.5C243.9,150.8,243.8,151,243.4,151.8z"/>
		<path class="st0" d="M140.4,192.4c-8.5-1.1-15.9-4.8-23-8.9c-16.5-9.3-31.6-20.7-45-34.1c-1-1-1.8-2-2.6-3.2
			C93.5,161.2,115.3,179.2,140.4,192.4z"/>
		<path class="st0" d="M104.1,114.2c22,17.3,40,39,62.3,57.1c-1.8-0.7-3-0.9-3.9-1.5c-6.3-4.3-12.9-8.3-18.7-13.2
			c-14.5-12.2-27.1-26.2-38.7-41.1C104.7,115.1,104.4,114.6,104.1,114.2z"/>
		<path class="st0" d="M70.7,323.8c25.4-12.5,52.5-18.7,80.6-20.7c0.1,0.3,0.1,0.5,0.2,0.8c-26.9,6.8-53.7,13.7-80.6,20.5
			C70.8,324.3,70.8,324.1,70.7,323.8z"/>
		<path class="st0" d="M391.2,485.5c-1.1,1.1-2.2,2.1-3.4,3.4c-6.9-7.2-16-7.1-24.6-8.9c-6.8-1.5-13.4-4-20.1-6.1c0.1-0.3,0.1-0.5,0.2-0.8
			c8.8,1.4,17.5,2.9,26.3,4.3c0.1-0.3,0.1-0.6,0.2-0.9c-8.4-2.3-16.7-4.5-25.1-6.8c0.1-0.4,0.2-0.8,0.3-1.2
			c10,1.8,20.1,3.2,30.1,5.6C381.6,475.6,386.7,480.1,391.2,485.5z"/>
		<path class="st0" d="M458.2,43.4c-0.4-6.5-0.9-13-1.3-19.8c-5.5,4.6-12.1,5.3-18.9,5.4c-0.1-0.3-0.3-0.5-0.4-0.8c1.9-1.1,3.7-2.5,5.7-3.4
			c3.8-1.6,7.8-2.9,11.7-4.4c2.1-0.8,3.6-2.1,4.8-4.2c3.8-6.9,15.9-9.9,22.6-5.8c2.3,1.4,3.7,3.4,3.9,6.8c-4-6.4-9.5-5.3-15-3.7
			c-6.8,2-9.3,7.2-10,13.6c-0.5,4.3-0.9,8.6-1.5,12.9c-0.2,1.2-0.7,2.4-1.1,3.5C458.5,43.5,458.4,43.5,458.2,43.4z"/>
		<path class="st0" d="M256.2,81.9c6.3,25.9,7.6,52.2,6.4,78.7C257.5,134.6,256.3,108.3,256.2,81.9z"/>
		<path class="st0" d="M297.1,410.3c2.4-2.7,4.8-5.1,8.6-5.8c-0.1,4.7-3.1,7.1-6.3,9.2c10.9,13,16.6,27.5,15.8,44.3
			c-4.4-13.6-9.7-26.9-15.8-39.9c-1.4-2.9-3.3-5.2-6.8-6.1c-2.6-0.7-5-2.7-7.2-4.4C290.1,404.9,293.6,407.2,297.1,410.3z"/>
		<path class="st0" d="M400.7,465.9c-1.2,1-2.3,1.9-3.5,2.9c-4.4-3.2-9.7-3.1-14.6-4c-3.4-0.6-6.7-1.7-10.1-2.5c-4.7-1.1-9.5-2.2-13.7-3.2
			c2.2-0.3,5.1-0.8,7.9-1.2c-2.6-0.6-5.4-1.2-8.3-1.8c10.4-0.7,20.8-1.3,31,1.6C394.2,458.9,397.9,461.6,400.7,465.9z M373,458.4
			c-0.1,0.3-0.1,0.5-0.2,0.8c3,0.5,5.9,1.1,8.9,1.6c0-0.2,0.1-0.4,0.1-0.6C378.9,459.6,375.9,459,373,458.4z"/>
		<path class="st0" d="M154.7,329.1c-20.4,6.3-39.4,15.7-59.3,23c-2.5,0.9-5.1,1.9-7.9,2.9C96.8,344.2,140.6,327.4,154.7,329.1z"/>
		<path class="st0" d="M354.1,451.3c-3.1,0.3-6.1,0.4-9.2,0.9c-7.9,1.1-12.1-1.3-14.8-8.7c-3.2-9.1-4-18.5-3.4-28.2c1,3.8,1.9,7.6,3,11.4
			c1.4,5,2.8,10,4.6,14.8c2.1,5.7,4.2,6.7,10.3,6.3c3-0.2,6.1-0.2,9.1,0.1c3.5,0.4,6.2,2.5,8.4,5.6c-4.4,1.5-8.5,0.3-12.8-0.5
			c1.6-0.3,3.1-0.6,4.7-1C354.2,451.8,354.2,451.6,354.1,451.3z"/>
		<path class="st0" d="M409.9,204.3c-0.8,3.1-3.2,5-6.6,6.1c1,2.9,1.5,6.1,4.7,7.5c3.6,1.6,5.5-1.6,7.9-3.4c0.5,4.4-2.5,8.2-6.6,8.4
			c-5.5,0.3-8.3-3.9-8-12.3c-5.6-1.1-8.6-4.7-8.7-10.6c-3.7,0-6.9-1-7.9-4.9c-0.7-2.5-0.2-4.9,2.2-6.6c2.1,7.7,3.4,8.3,12,4.6
			c-0.2,3.3-2.3,5-4.9,6.6c1.9,2.7,3.9,5.4,7.1,5.7C404,205.7,407,204.7,409.9,204.3z"/>
		<path class="st0" d="M485.6,110.8c-0.2,1.2,0,2.6-0.6,3.2c-2.3,2.6-5.4,2-8.5,1.4c-0.3,1-0.6,1.9-0.9,3.1c-0.9-0.8-1.7-1.4-2.6-2.2
			c-0.1,1.3-0.1,2.5-0.2,3.6c-3.8-0.9-7.2-5.4-7-9.6c0.1-1.5-0.4-2.2-1.7-2.9c-5.5-3.2-7.4-10.6-4.2-16c2.9,5.9,5.8,11.8,8.7,17.7
			c0.2-0.1,0.4-0.1,0.7-0.2c0-1.8,0-3.6,0-5.8c2.6,2.5,4.6,5.1,7.1,6.6C478.9,111.3,481.8,112.9,485.6,110.8z"/>
		<path class="st0" d="M315.9,196.8c3.7-9.3,2-18.8,1-28.2c-0.3-2.7-0.4-5.9-3.4-6.9c-3.1-1.1-5.7,0.8-7.7,3c-1.8,2-3,4.5-4.4,6.6
			c0-0.5-0.4-1.7-0.2-2.9c0.6-4.9,5.1-9.8,9.9-10.9c3.5-0.8,7.1,0.7,8.6,4.3c1.1,2.7,1.7,5.7,2,8.6c0.7,6.5,0.9,13.1-1.3,19.4
			c-0.9,2.6-2.5,5-3.8,7.5C316.5,197.1,316.2,196.9,315.9,196.8z"/>
		<path class="st0" d="M277.2,165.6c-2.6-19.7,2.7-38.5,6.5-57.5C286,127.8,280.8,146.7,277.2,165.6z"/>
		<path class="st0" d="M243.7,330.4c-0.8,4.3,0.3,5.8,4.8,6.7c3.6,0.7,7.1,0,10.5-1.1c2.8-0.9,5.7-1.7,8.7-2.1c-3.3,2.3-6.6,4.5-9.7,6.9
			c-0.8,0.6-1.1,2-1.7,3c1,0.5,2,1.3,3.1,1.5c1.5,0.3,3,0.1,5.4,0.1c-2.2,1.7-3.9,3-5.8,4.5c3.7,2.4,7.5,3.1,11.7,2.1
			c-4.1,4.8-13.8,3.3-16-2.3c-0.2-0.4-0.6-0.8-0.8-1.2c-1.1-2-2.1-4.1-3.4-6.6c-1.7-0.8-4.4-1.7-6.7-3.2
			C240.5,336.2,240.6,332.8,243.7,330.4z"/>
		<path class="st0" d="M278.6,467.4c3.7-2.1,7.3-4.6,11.3-6.1c4.3-1.7,8.5-0.7,12.3,2.1c2.3,1.7,4.5,4,8.1,3c-1.5,1.8-3.3,2.2-5.9,1.3
			c-1.7-0.6-3.3-1.5-5-2c-1.5-0.5-3-0.7-4.6-0.8c4.2,3.2,8.4,4.2,18.4,4.6c-2.1,1.9-7.2,3-11.6,2.4c-2.1-0.3-4.2-0.7-6.2-1.5
			c-4.4-1.8-8.9-2.8-13.7-2.2c-0.9,0.1-1.8,0-2.8,0C278.8,467.9,278.7,467.6,278.6,467.4z"/>
		<path class="st0" d="M278.9,323.3c-1.8,1-3.5,2.4-5.4,2.8c-6.1,1.6-11.7,0.3-16.6-3.6c-1.6-1.2-2.9-3.2-3.5-5.1c-0.5-1.7-1-2.6-2.7-3.3
			c-4.2-1.7-7.3-4.7-9.3-9c6.8,5.2,13.9,8.1,22.2,2.8c0.1,0.3,0.1,0.5,0.2,0.8c-1.5,1.7-3,3.5-4.5,5.2c-1.8,2.1-1.8,3.2,0.4,4.8
			c5.5,4,11.4,6.4,18.4,3.8c0.1,0,0.3,0,0.5,0C278.6,323,278.8,323.2,278.9,323.3z"/>
		<path class="st0" d="M356.2,241.4c2.7,0.3,4.9,0.6,7.2,0.7c4.3,0.1,8-1.3,10.7-4.9c1.3-1.7,2.9-3.2,4.9-4.6c-0.8,2.3-1.4,4.7-2.4,7
			c-0.8,1.9-0.3,2.9,1.5,3.5c3.2,1,6.5,1.9,9.8,2.8c0.7,0.2,1.8,0.6,2,1.1c1.2,3.7,3.8,5.2,7.6,5.4c-2.6,2-6.1,1.4-9.1-1
			c-1-0.8-2.4-1.4-3.7-1.7c-4.3-0.8-8.5-1.5-12-4.5c-0.4-0.4-1.4-0.3-2.1-0.2c-3.9,0.6-7.6,0.5-11.2-1.3
			C358.4,243.1,357.4,242.3,356.2,241.4z"/>
		<path class="st0" d="M461.4,146c-0.7-3.1-1.3-6.3-2.1-9.4c-0.3-1.1-0.7-2.3-1.4-3c-5.5-5.3-7.6-11.7-6.9-19.2c0.1-1,0.4-1.9,0.7-3.1
			c2.7,6.4,5.2,12.3,7.8,18.6c0.8-0.7,1.2-1,1.7-1.5c0.4,0.8,0.7,1.7,1.1,2.4c0.4,0.6,0,2.3,1.7,1.5c0.2,0.6,0.7,1.3,0.5,1.8
			c-1.2,4.7,0.6,9.2,1.3,13.7c0.1,0.7,0.4,1.3,0.5,1.9c-0.2,0.2-0.4,0.4-0.5,0.6c-1.4-1.2-2.7-2.3-4.1-3.5
			C461.6,146.6,461.5,146.3,461.4,146z"/>
		<path class="st0" d="M371.6,209.6c5.8,6.3,11.5,3.9,17.4,0.3c-1.1,5.2-5.8,8.8-10.3,8.4c-5.6-0.5-8.9-3.6-9.2-8.8c-4.3-1.2-8-3.3-8.4-8.5
			c-0.2-2.4,0.8-4.4,3.2-5.6c0.7,8,5.8,12.1,11,9C376,207.3,374.1,208.4,371.6,209.6z"/>
		<path class="st0" d="M374.3,226c-1.3,3-4.5,4.8-7.7,4.7c-4.4-0.3-7.1-2.8-8.5-8.1c-4.1,1.5-8.3,1.9-12.2-0.4c-2-1.2-3.8-3-6.1-4.9
			c1.6-1.1,2.7-1.9,3.3-2.3c1,1.1,1.6,2.1,2.4,2.4c4.8,2.1,9.7,2.3,14.7,0.6c0.7-0.2,1.4-0.4,2.8-0.8c-1,1.5-1.7,2.4-2.4,3.5
			C363.3,226.8,368.7,226.7,374.3,226z"/>
		<path class="st0" d="M251.7,319.9c-4.5,1.2-9,2.4-14,3.7c2.8,2.2,5.8,2.1,8.8,2.4c-2.5,2.9-10.4,2.9-13.3-0.5c-0.7-0.9-2-1.3-3.1-1.8
			c-1.6-0.8-3.4-1.2-4.9-2.1c-1.9-1.1-3.3-2.8-2.9-5.3c0.4-2.3,2.1-3.3,4.1-4.1c0,0.3,0.1,0.5,0.1,0.6c-2.3,3.9-1.9,5,2.6,6
			c1.8,0.4,3.7,0.4,5.6,0.4c5.7,0.1,11.3,0,17,0C251.7,319.4,251.7,319.6,251.7,319.9z"/>
		<path class="st0" d="M466,214.8c-0.7-1.1-1.3-2.2-2-3.2c-2.6-3.8-3.8-7.3-3.7-10.9c1,0.7,1.8,1.3,3.1,2.2c-2-4.7-4.2-9-1.6-14.1
			c3.2,6.5,7,12.4,8.3,19.9c-1.3-0.7-2.1-1.2-2.9-1.6c1.7,3.6,3.4,7.2,5.1,10.9c-0.2,0.2-0.5,0.3-0.7,0.5c-1.5-0.9-3-1.8-4.5-2.7
			C466.8,215.5,466.4,215.2,466,214.8z"/>
		<path class="st0" d="M414.7,189.4c1.6,2.1,2.9,4.3,4.7,6.1c2.7,2.9,4.4,2.9,7.8,0.7c0.3-0.2,0.7-0.4,1.1-0.6c0.2,4.4-2,6.3-7.3,6.7
			c1.7,4.2,6.1,5.4,12.6,3.7c-0.7,1.2-1.3,2.6-2.3,3.6c-2.2,2.1-5.6,2.3-8.6,0.8c-3-1.6-4.4-4.5-4.2-7.5c0.1-0.8-0.4-1.9-1-2.4
			C413.8,197.1,412.7,192.9,414.7,189.4z"/>
		<path class="st0" d="M301.5,333.6c5.6-3.3,5.6-3.3,11.3-14.8c0.9,1,1.7,2,2.5,2.9c2.8,3.4,5.1,4.2,9.2,2.6c3-1.1,5.8-2.7,8.7-4.1
			c-2.1,7.4-11.8,11.2-18.9,7.4c-1.9,1.7-3.6,3.7-5.7,4.9c-2,1.1-4.6,1.3-6.9,1.9C301.6,334.2,301.5,333.9,301.5,333.6z"/>
		<path class="st0" d="M459,106.9c1,2.5,2,4.9,3,7.5c0.4-0.9,0.7-1.7,1.4-3.3c1.9,4,3.6,7.4,5,10.9c0.7,1.8,1.8,2.8,3.8,3
			c0.1-0.6,0.2-1.1,0.3-2.2c0.7,1,1.4,1.5,1.4,2.1c0,0.8-0.3,2-0.9,2.3c-1.9,1-3.5,1.9-6,0.2C458.7,122.3,456.3,117,459,106.9z"/>
		<path class="st0" d="M303.2,337.9c-5.9,7.7-19,8.2-24.6,1.3c-1-1.3-1.9-2.9-2.3-4.5c-0.7-2.9,0.8-4.9,3.5-5.6c-0.1,1.5-0.9,3.4-0.3,4.6
			c1.4,2.8,4.1,4.5,7.2,5.2C292.1,340.2,297.4,339.6,303.2,337.9z"/>
		<path class="st0" d="M460.3,174.5c6.8,2.5,9,8.3,12.5,13.7c-1.5-0.2-2.6-0.3-3.7-0.4c0.8,2.6,1.6,5,2.6,8.2c-4.8-2.1-7.4-5.4-8.9-9.4
			C461.6,182.9,461.2,178.9,460.3,174.5z"/>
		<path class="st0" d="M298.7,132c2.8,11.4-0.2,22.3-2.9,33.2C292.2,153.7,295.3,142.8,298.7,132z"/>
		<path class="st0" d="M492.4,55.5c-0.9-0.5-1.6-0.8-2.9-1.5c1.1,2.6,1.9,4.7,2.8,6.8c-4.7,1.3-8.5-4.7-9.3-13.5c1,0.4,1.9,0.8,3.3,1.4
			c-1-2.7-1.8-5.1-2.7-7.4C488.2,40,493,49.2,492.4,55.5z"/>
		<path class="st0" d="M423.6,239.6c2.4,5.6,6.5,5.1,11.4,3.2c-2.4,3.1-4.7,4.8-7.9,5c-0.8,0.1-1.8,0.7-2.4,1.3c-4.4,4.9-14,6-18.6,1.9
			C413.4,249.6,421.8,250.1,423.6,239.6z"/>
		<path class="st0" d="M284.9,411.4c-3.5,3.3-11.6,2.7-17.5-1.5c0.6-1.4,1.3-2.8,2.1-4.4c-2.4,0.2-4.5,0.4-7.2,0.7c2.5-2.5,4.8-4,7.7-4.6
			c2.4-0.5,4.1,1.1,4.1,3.6c0,0.9-0.2,1.8-0.3,3.1C277.5,409.4,281.3,410.4,284.9,411.4z"/>
		<path class="st0" d="M313.4,400.8c2.1,1.3,4,2.5,5.8,3.7c2-1.7,3.8-3.7,6-5.1c2.1-1.4,4.7-2.3,7-3.3c0.2,0.2,0.4,0.5,0.7,0.7
			c-1.1,1.6-2,3.4-3.4,4.7c-1.8,1.8-3.9,3.2-5.9,4.9c-0.5,0.4-0.7,1.3-1.1,1.8c-0.4,0.5-1,1.2-1.6,1.3c-2.5,0.6-4.5-0.6-6.1-2.3
			C313.3,405.5,312.4,403.6,313.4,400.8z"/>
		<path class="st0" d="M343.3,249c1.5,0.7,3.2,1.2,4.4,2.2c4.9,3.9,7,9.1,6.1,15.3c-0.5,3.8-3.1,5.9-7.1,5.9c4.4-3.6,3.3-7.9,1.8-12
			C347.2,256.6,345.2,253,343.3,249z"/>
		<path class="st0" d="M449.1,227c3-2.1,5.6-4,8.3-5.9c0.9,1.9-0.4,3.8-1.4,5.7c-0.7,1.3-1.4,2.6-1.7,4c-0.6,3-3.2,5.4-7,6.2
			c-3.9,0.8-6.4,0-7.6-2.1c2-0.5,4.2-0.8,6.2-1.6C449.4,231.8,449.7,230.8,449.1,227z"/>
		<path class="st0" d="M447.7,100.5c-2.8,6.6-11,11.5-17.3,10.8c-3.6-0.4-5.5-2.5-5.4-6.4c3.1,3.7,6.6,2.4,10,1
			C439.1,104.3,443.2,102.4,447.7,100.5z"/>
		<path class="st0" d="M423.8,154.6c0.8,1.4,1.4,2.5,2.1,3.9c0.9-0.6,1.8-1.2,2.8-1.9c-1.5-2.7-2.6-5.3-0.2-8.6c1.4,1.8,2.7,3.5,4.2,5.4
			c0.4-0.1,1.1-0.2,1.8-0.3c0.5,3.7-0.8,4.9-4.7,4.3c-0.7,4.5-2.2,6.5-5.4,6.4c-0.7,0-1.9-0.8-2.1-1.4
			C421.4,159.7,421.4,157.1,423.8,154.6z"/>
		<path class="st0" d="M351.1,205.8c-0.3,1.3-0.3,2.2-0.8,2.8c-3.4,5-14.4,6.4-19,2.6c-2.1-1.8-2.4-3.6-0.4-6.3c0.1,3.6,2.6,3.8,4.9,3.7
			c4-0.2,7.9-0.7,11.9-1.2C348.6,207.2,349.5,206.6,351.1,205.8z"/>
		<path class="st0" d="M461.4,146c0.1,0.3,0.3,0.6,0.4,0.9c1.3,2.9,2.5,5.9,3.8,8.8c2,4.2,4.2,8.3,6.3,12.4c-0.2,0.2-0.4,0.4-0.6,0.6
			c-2-1.5-3.9-2.9-5.9-4.4c-0.5-0.5-1-0.9-1.5-1.4c-1.3-3.6-2.9-7.1-3.9-10.8C459.4,150.2,459.3,147.7,461.4,146z"/>
		<path class="st0" d="M403.3,231.4c0.4,4.2,3.2,6.2,6.3,8c3.7,2.1,6.4,0,9.1-2.5c0.3,3.6-1.7,6.6-4.9,7.5c-3.9,1.2-8.7-1.2-11.1-5.4
			C400.9,235.8,401,233.4,403.3,231.4z"/>
		<path class="st0" d="M466,214.8c0.4,0.3,0.8,0.7,1.2,1c2.9,3.7,5.5,7.6,6,12.4c0.2,2.1-0.2,4.3-0.9,6.5c-3-7.4-8.1-13.8-8.7-22.1
			C464.5,213.4,465.3,214.1,466,214.8z"/>
		<path class="st0" d="M417.7,148.3c0.5,4.1,0,7.4-2.1,10.4c-1.5,2.1-3.6,3.4-6.1,2.5c-1.4-0.5-2.9-1.9-3.3-3.3c-0.8-2.5,0.1-4.8,2.6-6.7
			c0.1,1.4,0.2,2.6,0.4,3.7c0.1,0.6,0.5,1.6,0.9,1.7c0.6,0,1.5-0.3,1.9-0.8c1.5-1.9,2.9-4,4.4-5.9
			C416.6,149.4,417,149.1,417.7,148.3z"/>
		<path class="st0" d="M399.2,221.4c0,3.6-2.6,7.1-6.1,8.5c-3.2,1.3-6.3,0.8-8.3-1.2c-1.9-1.9-2.3-4.4-1.1-7c0.1,0,0.2,0,0.2,0.1
			c4.2,4.9,5.9,5.2,11.6,1.9C396.7,223,397.9,222.2,399.2,221.4z"/>
		<path class="st0" d="M418,173.2c1.4,3.6,0.7,6.6-1.8,9c-2.2,2.3-5,3.1-8.2,2.1c-2.9-0.8-5.1-4.8-1.8-7.5c1.8,3.9,4.3,4.4,7.6,1.4
			C415.4,176.9,416.5,175.1,418,173.2z"/>
		<path class="st0" d="M453.9,98.5c-5-5.3-0.3-16.3,5.3-21.3C460.1,85,455.3,91.1,453.9,98.5z"/>
		<path class="st0" d="M463.9,163c0.5,0.5,1,0.9,1.5,1.4c2.2,3.1,4.4,6.2,6.5,9.4c0.7,1,1.2,2.2,1.9,3.4c-7-0.7-14.8-11.3-12.9-17.5
			C461.9,160.9,462.9,162,463.9,163z"/>
		<path class="st0" d="M411.9,163.2c-0.8,2.5-1.4,5-2.5,7.3c-1.6,3.3-5.4,4.6-8.1,2.8c-1.2-0.8-2.3-2.5-2.5-4c-0.2-1.2,1-2.7,1.5-4
			c0.3,0.1,0.5,0.2,0.8,0.3c0,0.4,0,0.8,0.1,1.1c0.4,0.9,0.8,2.4,1.3,2.4c1,0.1,2.3-0.4,3.1-1.1c1.9-1.7,3.6-3.6,5.4-5.4
			C411.3,162.8,411.6,163,411.9,163.2z"/>
		<path class="st0" d="M354.9,393.4c-0.3,7.8-5.5,12.7-9.4,18.4C343.2,406.7,347.9,397.7,354.9,393.4z"/>
		<path class="st0" d="M453.9,212c0.5,2.9-0.6,4.9-2.9,5.9c-3.5,1.6-6.8,0.8-9.8-1.5c-2.2-1.7-2.7-3.2-2.1-5.3C443.8,213.3,448.5,216,453.9,212z
			"/>
		<path class="st0" d="M311.6,174.7c-1.6,6.6-3.3,12.7-8.5,17.4C301.6,185.5,305.7,176.9,311.6,174.7z"/>
		<path class="st0" d="M478.7,55.5c7,2.2,10.8,7.2,14.4,12.7C487.7,68.8,480.9,62.8,478.7,55.5z"/>
		<path class="st0" d="M420,217.9c2.3,4.8,4.3,4.9,11.3,0.8c0.7,3.1-0.6,5.6-3.5,6.9c-2.9,1.4-6.7,0.6-8.4-1.7C417.9,222,418,220.1,420,217.9z"
			/>
		<path class="st0" d="M384.7,174.3c0.4,1.9,0.6,3.6,1.1,5.2c0.8,2.6,1.6,2.8,3.8,1.2c0.5-0.3,0.9-0.7,1.4-1c0.8,2.6-0.1,5-2.2,6.1
			c-2,1.1-4.5,0.4-6.1-1.7C380.5,181,381.3,176.7,384.7,174.3z"/>
		<path class="st0" d="M342.4,234.2c1.4,0.7,2.4,1.4,3.5,1.7c2.7,0.7,5.5,1.3,8.2,2c0.9,0.2,1.7,0.6,2.8,1.6c-1.4,0.6-2.7,1.3-4.2,1.6
			c-3.5,0.8-6.8,0.2-9.7-2C340.8,237.3,340.8,235.6,342.4,234.2z"/>
		<path class="st0" d="M405.1,133c0.6,3.4,1.6,3.8,4.3,1.8c1.6-1.2,3.3-2.4,5-3.6c1,5.3-3.6,10.3-8.2,9.2c-1.9-0.5-3.2-1.6-3.4-3.6
			C402.6,134.9,403.3,133.7,405.1,133z"/>
		<path class="st0" d="M428.3,163.1c0.5,5.3,5.6,5.9,9.4,2.5c1,2.3,0.2,4.6-2.3,6c-2.9,1.6-6.8,0.7-8.6-2C425.3,167.3,425.7,165,428.3,163.1z"/>
		<path class="st0" d="M481.1,81.5c5.5,3,10,6.6,12.7,12.1C487.7,93.9,481.3,87.9,481.1,81.5z"/>
		<path class="st0" d="M491.2,99.4c-5.1,0.2-11.7-5.3-13-11C482.8,88.4,489.5,94,491.2,99.4z"/>
		<path class="st0" d="M486.8,104.2c-7.1-0.3-13-5.5-12.9-11.5C478.9,95.9,484.3,98.3,486.8,104.2z"/>
		<path class="st0" d="M480.4,63.8c6,3,9.5,7.4,11.6,13.3C486.4,76.6,481.2,70.7,480.4,63.8z"/>
		<path class="st0" d="M477.2,103.9c-3.5,0.9-5.8-0.5-7.8-2.6c-2.7-2.9-3.5-6.4-2-10.4C470.8,95.3,473.9,99.4,477.2,103.9z"/>
		<path class="st0" d="M354,290.8c-6.4,0.1-9.6-4.6-13.9-7.7C344.8,280.5,350.4,283.6,354,290.8z"/>
		<path class="st0" d="M492.6,85.4c-5.5,0.7-10.9-5.1-10.2-10.8C487.3,76.8,490.4,80.6,492.6,85.4z"/>
		<path class="st0" d="M330.6,405.8c3-3.8,5.7-7.2,8.5-10.7c1.8,0.3,2.4,1.2,2,3.6C340.5,402.6,335.7,406.3,330.6,405.8z"/>
		<path class="st0" d="M428.3,188.5c3.3,3.4,4.1,3.3,6.3-0.6c2.3,1.6,2.9,3.8,1.5,5.8c-1.5,2.2-4.8,2.6-7,0.9
			C426.9,192.9,426.6,190.7,428.3,188.5z"/>
		<path class="st0" d="M342.9,227.9c-1.2,3-4.1,4.3-7.4,3.7c-3.5-0.6-5.4-2.4-5.6-5.4c2.2,0.2,4.4,0.4,6.5,0.7
			C338.5,227.2,340.6,227.6,342.9,227.9z"/>
		<path class="st0" d="M434.6,134.3c2.1,5.5,2.3,5.8,5.5,4.7c0.6,2.4-0.2,3.9-2.2,4.5c-2.5,0.7-5-0.9-5.9-3.6
			C431.1,137.2,432.1,135.2,434.6,134.3z"/>
		<path class="st0" d="M426,135.7c0,2.6-1.1,4-3.2,4.3c-2.3,0.4-3.9-0.9-4.8-2.9c-1-2.3-0.3-4.8,1.9-6.5C421.9,132.4,421,137.4,426,135.7z"/>
		<path class="st0" d="M446,190.2c2.5,1.4,4.3,4.6,7.7,1.7c1.3,1.9,0.9,3.4-0.5,4.8c-1.5,1.5-4.2,1.4-6.1-0.1C445.1,194.9,444.7,192.8,446,190.2
			z"/>
		<path class="st1" d="M30,517c-0.4,1.6-0.2,4-1.2,4.7c-2.3,1.5-5.1,2.9-7.9,3.2c-4.6,0.5-8.6-3.8-8.7-8.5c-0.1-4.8,3.9-8.8,8.7-8.8
			C26.1,507.6,29.7,511.4,30,517z M22.2,521.4c0.8,0,1.5,0,2.3,0c4.2,0,4,0,4.2-4.2c0.1-2.8-0.6-3.8-3.6-5.2
			c-3.6-1.6-5.7,0.8-8.5,0.9c-0.3,0-0.6,0.9-0.7,1.5c-0.9,6.7-0.6,7,6,7C22,521.4,22.1,521.4,22.2,521.4z"/>
		<path class="st1" d="M44.8,515c3.2-2.3,4.2-2.2,6.7,0.4c3.4-2.7,4.5-2.7,7.2,0.1c1.1-3.4,4-1.1,6-2c0.1,0,0.7,0.7,0.7,1.1
			c0.1,1.6,0,3.2-0.1,4.8c0,0.4-0.5,0.7-0.8,1.1c-1.3-1.6-2.5,0.3-3.7,0c-0.7-0.2-1.2-0.8-1.8-1.1c0.6-0.4,1.3-0.8,2-1.3
			c-0.5-0.4-1.2-0.8-1.8-1.3c-1.6,4.3-4.2,5-7.1,2.1c-1.7,0.8-3.3,1.5-5.3,2.4c-0.2,0.3-0.9,1.1-1.5,2c-0.3-0.2-0.6-0.3-0.9-0.5
			C44.5,520.2,44.6,517.6,44.8,515L44.8,515z M50.7,517c-1.3-0.8-2.1-1.7-2.7-1.6c-0.6,0.1-1.4,1.1-1.5,1.8c-0.1,0.5,1,1.5,1.5,1.5
			C48.7,518.7,49.4,517.9,50.7,517z M57.7,517c-1.3-0.8-2-1.7-2.6-1.6c-0.7,0.1-1.5,1-1.6,1.7c-0.1,0.4,1,1.5,1.5,1.5
			C55.7,518.6,56.4,517.8,57.7,517z"/>
		<path class="st1" d="M83.7,517.6c0.2,0.9,0.3,1.8,0.5,2.7c-2.1,0.7-2-1-2.4-2c-0.4-1-0.8-2-1.3-3.1c-0.3,0-0.6,0.1-0.9,0.1
			c-0.2,1.7-0.4,3.3-0.5,4.7c-2.2,0.2-4.3,0.4-6.3,0.5c-0.6,0.9-1.2,1.7-1.7,2.4c-0.5-0.7-1-1.4-1.7-2.4c-2.3,0.4-3.2-1-3.1-3.6
			c0.1-1.1-0.5-2.2-0.3-3.2c0.1-0.8,1-1.5,1.4-2.1c0.9,0.8,1.7,1.2,2.1,1.8c0.2,0.4,0.1,1.4-0.2,1.8c-1.2,1.4-1.1,2.4,0.1,3.3
			c0.8-1.5,1.3-3.6,2.6-4.5c1.2-0.8,3.2-0.2,5.2-0.2c0-0.3,0-1.2,0.1-2.1c0.1-0.6,0.5-1.2,0.8-1.8c0.4,0.6,0.9,1.1,1.2,1.8
			c0.2,0.3,0,0.8,0,1.5C83,512.5,82.4,516,83.7,517.6L83.7,517.6z M73.8,519.7c0.9-1.2,1.8-1.9,1.8-2.5c0-0.6-1-1.7-1.6-1.7
			c-0.6,0-1.6,0.9-1.7,1.5C72.1,517.6,73,518.4,73.8,519.7z"/>
		<path class="st1" d="M103.6,515.8c0.5,0.4,1.5,0.8,1.6,1.3c0.2,0.9,0.1,2.5-0.4,2.8c-0.8,0.4-2.1,0-3.2,0c0.4-0.5,0.7-1,1.1-1.4
			c0.1-0.1,0.5,0,1-0.3c-0.6-0.3-1.2-0.7-1.9-1c-1.6,3.4-2.3,3.7-5.9,2.7c-0.2-0.1-0.5-0.2-0.7-0.2c-3.7,0.7-3.6,0.7-3.9-2.8
			c-0.1-0.9-0.6-1.9-0.4-2.7c0.2-1,1-2,1.6-3.1c1.2,1.4,2,2.3,2.8,3.3c1.9-1.4,3.8-1.5,5.1,0c1.7-0.3,3-0.5,4.3-0.6
			c0.2,0,0.4,0.6,0.7,0.9C104.8,515.1,104.2,515.5,103.6,515.8z M98,519.4c0.8-1.1,1.7-1.8,1.5-2.3c-0.1-0.7-1.1-1.2-1.6-1.7
			c-0.5,0.5-1.5,1.1-1.5,1.6C96.4,517.7,97.2,518.3,98,519.4z"/>
		<path class="st1" d="M44.8,515c-1.1,1.1-2.3,2.2-3.4,3.3c0.1,0.1,0.2,0.3,0.3,0.4c0.7-0.1,1.3-0.2,2-0.2c0.1,0.2,0.2,0.3,0.4,0.5
			c-0.5,0.5-1,1.5-1.4,1.5c-1.6-0.2-3.1-0.7-5-1.1c-0.9,1.1-2.7,2.2-4.6,0.8c-1-0.7-1.9-2.6-1.7-3.8c0.3-2.5,2.4-3.2,4.7-2.8
			c0.9-1.1-0.7-3.6,2.3-3.3c0,1.5,0,2.9,0,4.8C40.8,512.8,42.9,513.2,44.8,515C44.8,515,44.8,515,44.8,515z M34.7,519.6
			c0.8-1.3,1.6-1.9,1.6-2.6c0-0.6-1-1.6-1.4-1.6c-0.7,0.1-1.7,0.9-1.8,1.5C33,517.6,33.9,518.3,34.7,519.6z"/>
		<path class="st1" d="M83.7,517.6c0.2-0.6,0.2-1.5,0.6-1.9c1.1-0.9,2.5-2.3,3.5-2.1c1.2,0.3,2.7,1.8,3,3.1c0.2,0.9-1,2.9-2,3.3
			c-1.1,0.4-2.7-0.4-4-0.9C84.3,519,84,518.1,83.7,517.6C83.7,517.6,83.7,517.6,83.7,517.6z M87.5,519.4c0.7-1.1,1.5-1.9,1.4-2.4
			c-0.2-0.7-1.1-1.1-1.7-1.7c-0.5,0.6-1.3,1.2-1.3,1.8C85.9,517.7,86.8,518.3,87.5,519.4z"/>
		<path class="st1" d="M441.8,515.5c0.5,3.7-3.9,1.5-5,3.5c0-1.2,0-2.5,0-3.5C438.4,515.5,439.9,515.5,441.8,515.5z"/>
		<path class="st1" d="M422.6,518.6c-0.4-0.8-0.7-1.2-1-1.7c-0.3,0.5-0.6,1-1,1.6c-0.4-0.9-0.7-1.6-1.1-2.5
			c-0.5,0.9-0.8,1.5-1.2,2.2c-0.2-0.1-0.4-0.2-0.7-0.3c0.5-1,1-2,1.7-3.4c0.6,0.9,0.9,1.4,1.4,2c0.3-0.5,0.6-1,0.9-1.6
			c0.4,0.5,0.6,0.9,1,1.3c0.4-0.5,0.8-0.9,1.4-1.7c0.6,1.3,1.1,2.3,1.7,3.3c-0.2,0.1-0.4,0.2-0.6,0.3c-0.4-0.7-0.8-1.4-1.3-2.3
			C423.4,516.9,423,517.6,422.6,518.6z"/>
		<path class="st1" d="M384.6,515.9c-0.9,1.1-1.5,1.7-2.1,2.4c-0.5-0.7-1.4-1.4-1.4-2.2c0-0.8,0.8-1.6,1.3-2.3
			C383,514.4,383.7,515,384.6,515.9z"/>
		<path class="st1" d="M393.2,513.6c0.3,1.1,0.8,2.1,0.9,3.2c0,0.5-0.8,1-1.3,1.5c-0.5-0.5-1.5-1-1.5-1.6c0-1,0.5-2.1,0.7-3.2
			C392.4,513.7,392.8,513.7,393.2,513.6z"/>
		<path class="st1" d="M352.8,519.3c-0.6-4.1-0.6-4.1,2-4C355.4,518.8,355.2,519.4,352.8,519.3z"/>
		<path d="M367,516.2c-1,0.8-1.6,1.2-2.2,1.7c-0.4-0.6-1.1-1.3-1.1-1.9c0-0.5,0.7-1.1,1.1-1.7C365.4,514.8,366.1,515.4,367,516.2z"
			/>
		<path class="st1" d="M390.1,513.7c0.1,1.6,0.2,2.9,0.3,4.2c-1.3-0.2-2.4-0.4-4-0.6C387.5,516.1,388.6,515.1,390.1,513.7z"/>
		<path class="st1" d="M219.2,253.1c-2.2,4-4.3,7.8-6.5,11.6c-0.2,0.4-0.7,0.8-1.1,0.9c-5,0.9-9,3.8-13.2,6.4
			c-2.8,1.7-5.6,3.5-8.5,5.1c-1.4,0.7-2.9,1.1-4.4,1.6c-0.2-0.2-0.5-0.4-0.7-0.6c1.1-2.1,1.8-4.6,3.4-6.2c2.8-3,5.8-6.1,9.4-8.1
			C204.6,259.7,212.1,256.5,219.2,253.1z"/>
		<path class="st1" d="M435.7,41.2c0.2,0.4,0.3,0.9,0.6,1.2c0.7,0.8,1.5,1.5,1.9,2.6c-1.6-0.4-3.3-0.8-5.6-1.3
			C433.9,42.7,434.8,42,435.7,41.2C435.7,41.3,435.7,41.2,435.7,41.2z"/>
		<path class="st1" d="M284,370.1c-3.6,3-7,6.2-10.7,9c-1.3,0.9-3.2,1-4.8,1.4c0.1-1.7,0-3.4,0.3-5c0.2-1.1,0.9-2.2,1.4-3.4
			C275.2,373.6,279.5,372,284,370.1z"/>
		<path class="st1" d="M373,458.4c2.9,0.6,5.9,1.2,8.8,1.8c0,0.2-0.1,0.4-0.1,0.6c-3-0.5-5.9-1.1-8.9-1.6
			C372.9,458.9,372.9,458.7,373,458.4z"/>
		<path class="st0" d="M22.2,521.4c-0.1,0-0.2,0-0.3,0c-6.6,0-6.9-0.4-6-7c0.1-0.5,0.5-1.4,0.7-1.5c2.8-0.1,4.9-2.4,8.5-0.9
			c3,1.3,3.7,2.3,3.6,5.2c-0.2,4.2,0,4.2-4.2,4.2C23.7,521.4,22.9,521.4,22.2,521.4z M21.8,520.5c2,0.1,3.7-1.2,3.8-3.2
			c0.2-2-1.3-3.7-3.2-3.9c-1.9-0.2-3.7,1.4-3.9,3.3C18.3,518.6,19.9,520.4,21.8,520.5z"/>
		<path class="st0" d="M50.7,517c-1.3,0.9-1.9,1.7-2.6,1.7c-0.5,0-1.6-1-1.5-1.5c0.1-0.7,0.9-1.7,1.5-1.8C48.6,515.4,49.4,516.2,50.7,517z"/>
		<path class="st0" d="M57.7,517c-1.3,0.8-2,1.6-2.7,1.6c-0.6,0-1.6-1.1-1.5-1.5c0.1-0.7,0.9-1.6,1.6-1.7C55.7,515.3,56.4,516.2,57.7,517z"/>
		<path class="st0" d="M73.8,519.7c-0.8-1.3-1.6-2-1.5-2.6c0.1-0.6,1.1-1.6,1.7-1.5c0.6,0,1.5,1.1,1.6,1.7C75.6,517.8,74.7,518.5,73.8,519.7z"/>
		<path class="st0" d="M98,519.4c-0.8-1.1-1.6-1.8-1.6-2.5c0-0.5,0.9-1.1,1.5-1.6c0.6,0.6,1.5,1.1,1.6,1.7C99.6,517.6,98.7,518.3,98,519.4z"/>
		<path class="st0" d="M34.7,519.6c-0.8-1.3-1.7-2.1-1.6-2.7c0.1-0.6,1.1-1.4,1.8-1.5c0.4-0.1,1.4,1,1.4,1.6C36.3,517.7,35.5,518.4,34.7,519.6z"
			/>
		<path class="st0" d="M87.5,519.4c-0.8-1-1.6-1.6-1.6-2.2c0-0.6,0.8-1.2,1.3-1.8c0.6,0.5,1.5,1,1.7,1.7C89.1,517.5,88.2,518.3,87.5,519.4z"/>
		<path class="st1" d="M21.8,520.5c-1.9-0.1-3.5-2-3.3-3.8c0.2-1.9,2.1-3.5,3.9-3.3c2,0.2,3.4,1.9,3.2,3.9
			C25.5,519.3,23.8,520.7,21.8,520.5z M19,516.4c0,0.4,0,0.8,0,1.3c1.1,0.7,2.2,2.1,3.2,1.9c1-0.2,2.4-1.6,2.6-2.7
			c0.3-1.5-1-2.9-2.7-2.5C21,514.6,20,515.7,19,516.4z"/>
		<path class="st0" d="M19,516.4c1-0.7,2-1.8,3.1-2c1.7-0.4,3,1,2.7,2.5c-0.2,1.1-1.6,2.5-2.6,2.7c-0.9,0.2-2.1-1.2-3.2-1.9
			C19,517.3,19,516.9,19,516.4z M25,516.9c-1.3-0.9-2.2-2-2.9-1.9c-0.8,0.1-1.4,1.3-2.1,2c0.9,0.6,1.7,1.5,2.6,1.8
			C23.1,518.9,23.9,517.9,25,516.9z"/>
		<path class="st1" d="M25,516.9c-1.2,0.9-2,2-2.4,1.9c-1-0.3-1.8-1.2-2.6-1.8c0.7-0.7,1.4-1.9,2.1-2C22.9,514.9,23.7,516,25,516.9z
			"/>
	</g>
</g>
</svg>
